<svg width="18" height="22" viewBox="0 0 18 22" fill="none" xmlns="http://www.w3.org/2000/svg">
<path d="M2.22021 20.2343C2.21789 20.5275 2.33685 20.8096 2.55101 21.0188C2.76517 21.2279 3.05704 21.347 3.36261 21.35H14.5972C14.9028 21.347 15.1946 21.2279 15.4088 21.0188C15.623 20.8096 15.7419 20.5275 15.7396 20.2343L16.9351 6.85001H0.935059L2.22021 20.2343ZM2.97998 6.85001H14.98L13.9033 19.6145H4.10482L2.97998 6.85001Z" fill="#333333"/>
<path d="M4.8552 7.80835H6.1152L6.9552 18.45H5.6952L4.8552 7.80835ZM8.35019 7.80835H9.6102V18.45H8.35019V7.80835ZM11.8452 7.80835H13.1052L12.2652 18.45H11.0052L11.8452 7.80835ZM12.3552 4.07501L11.9952 1.82501C11.9952 1.19417 11.5504 0.700012 10.9827 0.700012H6.9777C6.40995 0.700012 5.9652 1.19417 5.9652 1.82501L5.6052 4.07501H0.700195L0.844811 5.85001H17.1344L17.2602 4.07501H12.3552ZM7.46519 2.20001H10.4952L10.8552 4.07501H7.1052L7.46519 2.20001Z" fill="#333333"/>
</svg>
