<svg width="226" height="78" viewBox="0 0 226 78" fill="none" xmlns="http://www.w3.org/2000/svg">
<path d="M10.4426 7.79133C8.32305 7.79133 6.57715 9.55087 6.57715 11.687V29.8668C6.57715 32.0029 8.32305 33.7624 10.4426 33.7624H38.7894C40.9089 33.7624 42.6548 32.0029 42.6548 29.8668V11.687C42.6548 9.55087 40.9089 7.79133 38.7894 7.79133H10.4426ZM10.4426 10.3884H38.7894C39.5186 10.3884 40.0778 10.952 40.0778 11.687V29.8668C40.0778 30.6017 39.5186 31.1653 38.7894 31.1653H10.4426C9.71333 31.1653 9.15413 30.6017 9.15413 29.8668V11.687C9.15413 10.952 9.71333 10.3884 10.4426 10.3884ZM29.0046 16.0696C26.523 16.0696 25.2203 17.3032 25.2203 18.8693C25.2203 21.7002 28.5214 21.3106 28.5214 22.765C28.5214 23.0143 28.3152 23.5766 26.952 23.5766C25.5862 23.5766 24.6972 23.0896 24.6972 23.0896L24.2939 24.9569C24.2939 24.9569 25.1391 25.4841 26.8309 25.4841C28.5214 25.4841 30.8974 24.1752 30.8974 22.278C30.8974 19.9951 27.595 19.8432 27.595 18.829C27.595 18.3122 28.0331 17.8954 29.2056 17.8954C29.9709 17.8954 30.8162 18.5044 30.8162 18.5044L31.2195 16.5163C31.2195 16.5163 30.0972 16.0696 29.0046 16.0696ZM18.4158 16.2319L16.2408 22.6442C16.2408 22.6442 16.13 22.091 16.0798 21.7508C14.8518 18.9719 12.8585 17.9356 12.8585 17.9356L14.7513 25.1998H17.3283L20.9515 16.2319H18.4158ZM21.8779 16.2319L20.4683 25.1998H22.8443L24.2539 16.2319H21.8779ZM34.6829 16.2319L30.8175 25.1998H33.1522L33.6354 23.9428H36.6157L36.8566 25.1998H38.9904L37.1788 16.2319H34.6829ZM10.2403 16.2722C10.2403 16.2722 14.8763 17.7032 15.9586 21.2236L15.1533 17.1656C15.1533 17.1656 14.8016 16.2722 13.8648 16.2722H10.2403ZM35.5681 18.829L36.2523 22.1975H34.3196L35.5681 18.829Z" fill="#666666"/>
<g clip-path="url(#clip0_431_459)">
<path d="M58.8866 8.93698H93.6702C94.7681 8.93698 95.658 9.81649 95.658 10.9013V31.5266C95.658 32.6114 94.7681 33.4909 93.6702 33.4909H58.8866C57.7889 33.4909 56.8989 32.6114 56.8989 31.5266V10.9013C56.8989 9.81649 57.7889 8.93698 58.8866 8.93698Z" stroke="#666666" stroke-width="2"/>
<path d="M92.6254 21.2129C92.6254 26.7306 88.0735 31.2213 82.4787 31.2213C80.1451 31.2213 77.9939 30.4384 76.2778 29.1291C74.5626 30.4384 72.4113 31.2213 70.0779 31.2213C64.4833 31.2213 59.9316 26.7307 59.9316 21.2129C59.9316 15.6947 64.4834 11.2066 70.0779 11.2066C72.4114 11.2066 74.5627 11.9865 76.2778 13.2977C77.994 11.9865 80.1452 11.2066 82.4787 11.2066C88.0732 11.2066 92.6254 15.6951 92.6254 21.2129ZM82.4642 12.0901C80.406 12.0901 78.5059 12.7552 76.9706 13.8775C78.3628 15.1555 79.3925 16.815 79.8844 18.6853H78.9441C78.4623 17.0318 77.5205 15.572 76.2629 14.4485C75.0067 15.572 74.0643 17.0318 73.5843 18.6853H72.6425C73.1356 16.815 74.1652 15.1555 75.5575 13.8775C74.0215 12.7552 72.1222 12.0901 70.0629 12.0901C64.9613 12.0901 60.8255 16.169 60.8255 21.2019C60.8255 26.2334 64.9613 30.3137 70.0629 30.3137C72.1221 30.3137 74.0215 29.6487 75.5575 28.5265C74.2475 27.3231 73.2592 25.7813 72.7367 24.0459H73.6876C74.1927 25.5655 75.0896 26.9067 76.2629 27.9552C77.4376 26.9067 78.3356 25.5655 78.8408 24.0459H79.7914C79.268 25.7814 78.28 27.3231 76.9705 28.5265C78.5056 29.6487 80.4057 30.3137 82.4641 30.3137C87.5658 30.3137 91.7016 26.2335 91.7016 21.2019C91.7016 16.1691 87.5659 12.0901 82.4642 12.0901Z" fill="#666666" stroke="#666666" stroke-width="1.02564"/>
<path d="M66.327 19.0148H64.8479L63.9234 21.7328L63.885 19.0148H62.5142L61.77 23.4063H62.6621L63.235 20.0512L63.315 23.4063H63.9649L65.1829 20.0312L64.6372 23.4063H65.5898L66.327 19.0148ZM68.7821 23.4022H67.9924L68.0108 23.0316C67.7698 23.3242 67.4488 23.4642 67.0126 23.4642C66.4953 23.4642 66.1429 23.0657 66.1429 22.4895C66.1429 21.6186 66.7574 21.1125 67.8144 21.1125C67.9227 21.1125 68.0614 21.1224 68.2031 21.1404C68.2326 21.0215 68.2397 20.9716 68.2397 20.9077C68.2397 20.6721 68.0745 20.5832 67.629 20.5832C67.1634 20.5772 66.7787 20.6921 66.6208 20.744C66.6309 20.6841 66.7535 19.9411 66.7535 19.9411C67.2274 19.8034 67.541 19.7515 67.8934 19.7515C68.7114 19.7515 69.1448 20.1129 69.1438 20.798C69.1448 20.9817 69.1144 21.2083 69.0668 21.5071C68.9838 22.0231 68.8066 23.1315 68.7822 23.4021V23.4022H68.7821ZM68.1128 21.828C68.0126 21.8179 67.9689 21.8139 67.9001 21.8139C67.3594 21.8139 67.087 21.9965 67.087 22.3561C67.087 22.579 67.2207 22.7206 67.4272 22.7206C67.8161 22.7206 68.0954 22.3561 68.1128 21.828ZM81.2577 18.9166C79.9951 18.9166 79.1121 20.013 79.1121 21.5828C79.1121 22.7491 79.7512 23.4781 80.7768 23.4781C81.0399 23.4781 81.2676 23.4441 81.618 23.3483L81.7851 22.3486C81.4702 22.5015 81.2111 22.5743 80.976 22.5743C80.4222 22.5743 80.0879 22.1708 80.0879 21.5047C80.0879 20.5372 80.5853 19.8592 81.297 19.8592C81.5613 19.8592 81.8083 19.9271 82.1484 20.0969L82.3043 19.1444C82.1648 19.0903 81.6736 18.9166 81.2577 18.9166ZM84.6844 23.4022H83.8959L83.9141 23.0316C83.6721 23.3242 83.3501 23.4642 82.9146 23.4642C82.3984 23.4642 82.044 23.0657 82.044 22.4895C82.044 21.6186 82.6606 21.1125 83.7165 21.1125C83.8249 21.1125 83.9636 21.1224 84.1056 21.1404C84.1347 21.0215 84.1419 20.9716 84.1419 20.9077C84.1419 20.6721 83.9768 20.5832 83.5322 20.5832C83.0656 20.5772 82.682 20.6921 82.5239 20.744C82.5331 20.6841 82.6556 19.9411 82.6556 19.9411C83.1304 19.8034 83.4442 19.7515 83.7945 19.7515C84.6137 19.7515 85.0471 20.1129 85.046 20.798C85.048 20.9817 85.0167 21.2083 84.969 21.5071C84.8871 22.0231 84.709 23.1315 84.6846 23.4021V23.4022H84.6844ZM84.0147 21.828C83.9155 21.8179 83.871 21.8139 83.8011 21.8139C83.2614 21.8139 82.988 21.9965 82.988 22.3561C82.988 22.579 83.1218 22.7206 83.3304 22.7206C83.7182 22.7206 83.9986 22.3561 84.0147 21.828ZM73.4703 22.5745C73.4065 22.5966 73.3225 22.6084 73.2142 22.6084C72.9875 22.6084 72.8873 22.5287 72.8873 22.3438C72.8893 22.2301 73.0462 21.3853 73.1556 20.7072H73.6444L73.7741 19.8484H73.2871L73.3974 19.3094H72.4507C72.4507 19.3094 72.0925 21.4114 72.0388 21.7438C71.978 22.1243 71.9012 22.5387 71.9071 22.6964C71.9071 23.2048 72.1724 23.4814 72.6593 23.4814C72.8802 23.4814 73.0834 23.4453 73.3449 23.3655L73.4703 22.5745ZM76.3808 23.3203C76.0548 23.4183 75.7408 23.4642 75.4088 23.4642C74.3476 23.4619 73.795 22.916 73.795 21.8704C73.795 20.6501 74.4986 19.7514 75.4533 19.7514C76.2339 19.7514 76.7332 20.2537 76.7332 21.0445C76.7332 21.3061 76.6977 21.5608 76.6156 21.9233H74.7304C74.6667 22.4395 75.0029 22.6552 75.5537 22.6552C75.8926 22.6552 76.1975 22.5872 76.5377 22.4316L76.3808 23.3203ZM75.8844 21.2255C75.8905 21.1516 75.9845 20.5862 75.4439 20.5862C75.1421 20.5862 74.9255 20.815 74.8386 21.2255H75.8844ZM69.5364 20.9597C69.5364 21.4121 69.757 21.7227 70.2612 21.9573C70.647 22.137 70.7067 22.1889 70.7067 22.3519C70.7067 22.5733 70.5366 22.6733 70.159 22.6733C69.8755 22.6733 69.6102 22.6312 69.3054 22.5335C69.3054 22.5335 69.18 23.3204 69.1738 23.3584C69.3916 23.4044 69.5839 23.4481 70.166 23.4642C71.1713 23.4642 71.6352 23.0857 71.6352 22.2709C71.6352 21.7786 71.4417 21.493 70.9637 21.2761C70.565 21.0944 70.5184 21.0546 70.5184 20.8878C70.5184 20.694 70.6773 20.5962 70.9861 20.5962C71.1723 20.5962 71.4284 20.6162 71.6694 20.6502L71.8052 19.8213C71.5581 19.7834 71.1846 19.7515 70.9669 19.7515C69.9008 19.7514 69.5323 20.2996 69.5364 20.9597ZM90.0473 23.4064H89.1454L89.1909 23.074C88.9286 23.3487 88.6605 23.4685 88.3122 23.4685C87.6195 23.4685 87.162 22.8803 87.162 21.9876C87.162 20.7981 87.8715 19.7976 88.7118 19.7976C89.0806 19.7976 89.3618 19.9454 89.6223 20.284L89.8327 19.0149H90.7724L90.0473 23.4064ZM88.644 22.5879C89.0874 22.5879 89.4003 22.0914 89.4003 21.3844C89.4003 20.9301 89.2232 20.6844 88.8949 20.6844C88.4626 20.6844 88.1558 21.1807 88.1558 21.8828C88.1558 22.3511 88.32 22.5879 88.644 22.5879ZM85.7141 19.8391C85.5947 20.9436 85.383 22.063 85.218 23.1694L85.1744 23.41H86.1262C86.4674 21.2263 86.5503 20.7998 87.0839 20.8537C87.1688 20.4054 87.3267 20.015 87.4462 19.8174C87.0466 19.7353 86.8236 19.959 86.5332 20.3815C86.5564 20.1977 86.598 20.0209 86.5889 19.8391H85.7141ZM77.3673 19.8391C77.2476 20.9436 77.0351 22.063 76.87 23.1694L76.8264 23.41H77.7791C78.1203 21.2263 78.2023 20.7998 78.7358 20.8537C78.8219 20.4054 78.9808 20.015 79.0984 19.8174C78.7004 19.7353 78.4759 19.959 78.185 20.3815C78.2084 20.1977 78.2497 20.0209 78.2418 19.8391H77.3673Z" fill="#666666"/>
</g>
<g clip-path="url(#clip1_431_459)">
<path d="M114.457 9.95003C113.742 9.95003 113.163 10.5211 113.163 11.2256V31.1762C113.163 31.8807 113.742 32.4518 114.457 32.4518H149.152C149.866 32.4518 150.446 31.8807 150.446 31.1762V11.2256C150.446 10.5211 149.866 9.95003 149.152 9.95003H114.457ZM114.457 8.4193H149.152C150.724 8.4193 152 9.67574 152 11.2256V31.1762C152 32.726 150.724 33.9825 149.152 33.9825H114.457C112.884 33.9825 111.609 32.726 111.609 31.1762V11.2256C111.609 9.67574 112.884 8.4193 114.457 8.4193Z" fill="#666666"/>
<path d="M113.117 20.5299H114.912L115.317 19.5502H116.223L116.627 20.5299H120.159V19.7809L120.474 20.5331H122.308L122.623 19.7697V20.5299H131.4L131.396 18.9217H131.566C131.685 18.9258 131.72 18.9368 131.72 19.1339V20.5299H136.259V20.1555C136.625 20.3524 137.195 20.5299 137.944 20.5299H139.854L140.263 19.5502H141.169L141.569 20.5299H145.249V19.5993L145.807 20.5299H148.756V14.3778H145.837V15.1044L145.428 14.3778H142.433V15.1044L142.058 14.3778H138.013C137.335 14.3778 136.74 14.4727 136.259 14.7371V14.3778H133.468V14.7371C133.162 14.4646 132.745 14.3778 132.281 14.3778H122.082L121.397 15.9668L120.695 14.3778H117.482V15.1044L117.129 14.3778H114.389L113.117 17.3029V20.5299H113.117ZM124.448 19.6425H123.371L123.367 16.1878L121.844 19.6425H120.921L119.394 16.1848V19.6425H117.257L116.854 18.6586H114.666L114.258 19.6425H113.117L114.999 15.2315H116.559L118.346 19.4078V15.2315H120.061L121.436 18.2239L122.699 15.2315H124.448V19.6425H124.448ZM116.494 17.7432L115.775 15.9847L115.06 17.7432H116.494ZM128.735 19.6425H125.225V15.2315H128.735V16.1501H126.276V16.9451H128.676V17.8493H126.276V18.7302H128.735V19.6425ZM133.68 16.4195C133.68 17.1228 133.213 17.4861 132.94 17.5952C133.17 17.683 133.366 17.8381 133.46 17.9667C133.608 18.1861 133.634 18.382 133.634 18.776V19.6425H132.574L132.57 19.0863C132.57 18.8208 132.595 18.4391 132.404 18.2269C132.251 18.0718 132.017 18.0381 131.638 18.0381H130.511V19.6425H129.46V15.2315H131.877C132.413 15.2315 132.809 15.2457 133.149 15.4428C133.481 15.6398 133.68 15.9275 133.68 16.4195ZM132.352 17.0745C132.208 17.1624 132.037 17.1653 131.833 17.1653H130.556V16.1856H131.85C132.033 16.1856 132.224 16.1938 132.348 16.2651C132.484 16.3294 132.569 16.4662 132.569 16.6551C132.569 16.8479 132.489 17.003 132.352 17.0745ZM135.365 19.6425H134.293V15.2315H135.365V19.6425ZM147.809 19.6425H146.321L144.329 16.3318V19.6425H142.19L141.781 18.6586H139.598L139.202 19.6425H137.972C137.462 19.6425 136.815 19.5292 136.449 19.1546C136.08 18.7801 135.888 18.2728 135.888 17.4707C135.888 16.8165 136.002 16.2184 136.454 15.7459C136.794 15.3938 137.326 15.2315 138.05 15.2315H139.067V16.1767H138.071C137.687 16.1767 137.471 16.2339 137.262 16.438C137.083 16.6237 136.96 16.9748 136.96 17.4371C136.96 17.9097 137.054 18.2505 137.249 18.473C137.411 18.6476 137.705 18.7006 137.982 18.7006H138.453L139.934 15.2316H141.508L143.287 19.4038V15.2316H144.887L146.733 18.3037V15.2316H147.809V19.6425ZM141.423 17.7432L140.696 15.9847L139.973 17.7432H141.423Z" fill="#666666"/>
<path d="M150.487 26.6858C150.232 27.0603 149.734 27.2501 149.061 27.2501H147.032V26.3041H149.053C149.253 26.3041 149.394 26.2776 149.478 26.1948C149.551 26.1266 149.602 26.0274 149.602 25.907C149.602 25.7785 149.551 25.6765 149.474 25.6153C149.398 25.5479 149.287 25.5173 149.104 25.5173C148.117 25.4837 146.887 25.5479 146.887 24.1518C146.887 23.5118 147.292 22.8382 148.394 22.8382H150.487L150.487 21.9603H148.542C147.956 21.9603 147.529 22.1014 147.228 22.3206V21.9603H144.352C143.892 21.9603 143.352 22.0748 143.097 22.3206V21.9603H137.961V22.3206C137.552 22.0247 136.863 21.9603 136.544 21.9603H133.157V22.3206C132.833 22.0064 132.114 21.9603 131.676 21.9603H127.885L127.017 22.9026L126.205 21.9603H120.542V28.1167H126.098L126.992 27.1595L127.834 28.1167L131.259 28.1197V26.6715H131.596C132.051 26.6786 132.587 26.6602 133.059 26.4551V28.1165H135.885V26.512H136.021C136.195 26.512 136.212 26.5192 136.212 26.6936V28.1164H144.794C145.339 28.1164 145.909 27.9765 146.224 27.7225V28.1164H148.946C149.513 28.1164 150.066 28.0367 150.487 27.8326V26.6858ZM133.47 24.3178C133.47 25.5434 132.559 25.7964 131.641 25.7964H130.33V27.2763H128.288L126.994 25.8157L125.65 27.2763H121.488V22.8642H125.714L127.006 24.3104L128.343 22.8642H131.7C132.533 22.8642 133.47 23.0959 133.47 24.3178ZM125.118 26.3483H122.535V25.4704H124.841V24.5702H122.535V23.7681H125.169L126.318 25.0539L125.118 26.3483ZM129.28 26.8535L127.667 25.0563L129.28 23.3162V26.8535ZM131.665 24.8917H130.307V23.7681H131.677C132.057 23.7681 132.32 23.9232 132.32 24.3091C132.32 24.6906 132.069 24.8917 131.665 24.8917ZM138.778 22.8642H142.284V23.7767H139.824V24.5788H142.224V25.479H139.824V26.3568L142.284 26.3608V27.2763H138.778V22.8642ZM137.43 25.2259C137.664 25.3125 137.855 25.4678 137.944 25.5963C138.093 25.8117 138.114 26.0128 138.119 26.4017V27.2763H137.064V26.7243C137.064 26.4589 137.089 26.0659 136.894 25.8607C136.74 25.7026 136.506 25.6649 136.123 25.6649H135V27.2763H133.945V22.8642H136.37C136.902 22.8642 137.29 22.8878 137.634 23.0724C137.966 23.2735 138.174 23.5489 138.174 24.0522C138.174 24.7564 137.706 25.1158 137.43 25.2259ZM136.836 24.6682C136.695 24.7518 136.522 24.759 136.317 24.759H135.041V23.7681H136.335C136.522 23.7681 136.709 23.7721 136.836 23.8478C136.972 23.9192 137.053 24.0559 137.053 24.2447C137.053 24.4335 136.972 24.5855 136.836 24.6682ZM146.32 24.9492C146.525 25.1617 146.634 25.4299 146.634 25.884C146.634 26.8331 146.043 27.2762 144.984 27.2762H142.938V26.3301H144.976C145.175 26.3301 145.316 26.3036 145.405 26.2209C145.477 26.1526 145.529 26.0535 145.529 25.9331C145.529 25.8046 145.473 25.7025 145.401 25.6413C145.32 25.574 145.21 25.5434 145.027 25.5434C144.044 25.5097 142.814 25.574 142.814 24.1778C142.814 23.5378 143.214 22.8642 144.316 22.8642H146.422V23.8033H144.495C144.304 23.8033 144.179 23.8104 144.074 23.883C143.959 23.9544 143.916 24.0604 143.916 24.2004C143.916 24.3668 144.014 24.4801 144.146 24.529C144.257 24.5677 144.376 24.5791 144.555 24.5791L145.12 24.5944C145.691 24.6083 146.082 24.7073 146.32 24.9492ZM150.489 23.7681H148.574C148.383 23.7681 148.256 23.7753 148.149 23.8478C148.038 23.9192 147.996 24.0253 147.996 24.1652C147.996 24.3317 148.089 24.4449 148.225 24.4939C148.336 24.5326 148.455 24.5439 148.63 24.5439L149.2 24.5592C149.774 24.5734 150.158 24.6725 150.392 24.9143C150.434 24.948 150.46 24.9857 150.489 25.0235V23.7681Z" fill="#666666"/>
</g>
<g clip-path="url(#clip2_431_459)">
<path d="M41.0758 57.9436C40.0744 57.2552 38.7676 56.9102 37.1555 56.9102H30.9143C30.4201 56.9102 30.147 57.1573 30.0952 57.6511L27.5597 73.566C27.5334 73.7223 27.5725 73.8653 27.6767 73.9952C27.7803 74.1255 27.9106 74.1903 28.0667 74.1903H31.0312C31.5512 74.1903 31.837 73.9437 31.8895 73.4491L32.5915 69.1586C32.6171 68.9507 32.7086 68.7816 32.8647 68.6514C33.0206 68.5214 33.2157 68.4363 33.4497 68.3974C33.6838 68.3588 33.9045 68.3394 34.1129 68.3394C34.3207 68.3394 34.5676 68.3525 34.8541 68.3784C35.1399 68.4044 35.3221 68.417 35.4002 68.417C37.6365 68.417 39.3918 67.7869 40.6663 66.5253C41.9401 65.2642 42.5778 63.5154 42.5778 61.2787C42.5778 59.7444 42.0768 58.6327 41.0758 57.9432V57.9436ZM37.8578 62.7224C37.7274 63.6327 37.3897 64.2306 36.8436 64.5167C36.2974 64.8032 35.5173 64.9456 34.5032 64.9456L33.2159 64.9847L33.8792 60.8108C33.9309 60.525 34.0999 60.3819 34.3862 60.3819H35.1275C36.1672 60.3819 36.9218 60.5318 37.3899 60.8303C37.8578 61.1296 38.0139 61.7606 37.8578 62.7224Z" fill="#666666"/>
<path d="M106.94 56.9099H104.054C103.767 56.9099 103.598 57.053 103.547 57.339L101.011 73.5663L100.972 73.6443C100.972 73.775 101.024 73.8979 101.128 74.015C101.232 74.1317 101.363 74.1904 101.518 74.1904H104.093C104.587 74.1904 104.86 73.9438 104.913 73.4494L107.448 57.4951V57.4564C107.448 57.0924 107.278 56.9103 106.94 56.9103V56.9099Z" fill="#666666"/>
<path d="M72.0676 63.191C72.0676 63.0613 72.0153 62.9375 71.9118 62.8207C71.8075 62.7037 71.6904 62.6449 71.5607 62.6449H68.5572C68.2705 62.6449 68.0366 62.7756 67.8549 63.0349L63.7201 69.1205L62.0039 63.2692C61.8732 62.8533 61.5874 62.6449 61.1457 62.6449H58.2197C58.0894 62.6449 57.9723 62.7036 57.869 62.8207C57.7646 62.9375 57.7129 63.0614 57.7129 63.191C57.7129 63.2435 57.9665 64.0102 58.4735 65.4925C58.9804 66.975 59.5266 68.5744 60.1118 70.2908C60.697 72.007 61.0022 72.9176 61.0285 73.021C58.8959 75.9338 57.83 77.4943 57.83 77.702C57.83 78.0404 57.9989 78.2092 58.3371 78.2092H61.3406C61.6266 78.2092 61.8606 78.0795 62.0429 77.8192L71.9899 63.4638C72.0416 63.4122 72.0676 63.3216 72.0676 63.1909V63.191Z" fill="#666666"/>
<path d="M100.037 62.6449H97.0722C96.7078 62.6449 96.4875 63.074 96.4094 63.9323C95.7325 62.8926 94.498 62.3718 92.7033 62.3718C90.8309 62.3718 89.2379 63.074 87.9249 64.4783C86.6115 65.8828 85.9551 67.5343 85.9551 69.4325C85.9551 70.9671 86.4035 72.1892 87.3006 73.0991C88.1977 74.0099 89.4004 74.4644 90.9092 74.4644C91.6631 74.4644 92.4303 74.3081 93.2104 73.9963C93.9906 73.6843 94.6012 73.2684 95.044 72.7481C95.044 72.7742 95.0176 72.8909 94.9661 73.0988C94.9136 73.3073 94.888 73.4637 94.888 73.5669C94.888 73.9835 95.0566 74.191 95.3952 74.191H98.0869C98.5803 74.191 98.8668 73.9444 98.9446 73.4499L100.544 63.2689C100.57 63.1128 100.531 62.9699 100.427 62.8397C100.323 62.7101 100.193 62.6449 100.037 62.6449ZM94.9464 70.3296C94.2832 70.9797 93.4835 71.3048 92.5475 71.3048C91.793 71.3048 91.1824 71.0971 90.7141 70.6807C90.2457 70.2654 90.0117 69.6933 90.0117 68.9643C90.0117 68.0028 90.3368 67.1896 90.9871 66.5265C91.6364 65.8633 92.4434 65.5317 93.4056 65.5317C94.1331 65.5317 94.7379 65.7464 95.2193 66.1752C95.7 66.6043 95.9413 67.1962 95.9413 67.9503C95.9411 68.8864 95.6094 69.6798 94.9464 70.3296Z" fill="#666666"/>
<path d="M55.7236 62.6449H52.759C52.3944 62.6449 52.1739 63.074 52.0958 63.9323C51.3936 62.8926 50.1583 62.3718 48.3899 62.3718C46.5175 62.3718 44.9245 63.074 43.6114 64.4783C42.298 65.8828 41.6416 67.5343 41.6416 69.4325C41.6416 70.9671 42.0903 72.1892 42.9875 73.0991C43.8847 74.0099 45.0871 74.4644 46.5956 74.4644C47.3234 74.4644 48.078 74.3081 48.858 73.9963C49.6382 73.6843 50.2623 73.2684 50.7304 72.7481C50.6261 73.06 50.5744 73.3331 50.5744 73.5669C50.5744 73.9835 50.7433 74.191 51.0815 74.191H53.773C54.2667 74.191 54.5531 73.9444 54.6312 73.4499L56.2304 63.2689C56.2561 63.1128 56.2171 62.9699 56.1135 62.8397C56.0094 62.7101 55.8795 62.6449 55.7236 62.6449ZM50.633 70.3489C49.9698 70.9869 49.1567 71.3048 48.1951 71.3048C47.4405 71.3048 46.8359 71.0971 46.3811 70.6807C45.9258 70.2654 45.6984 69.6933 45.6984 68.9643C45.6984 68.0028 46.0233 67.1896 46.6737 66.5265C47.3234 65.8633 48.1297 65.5317 49.0922 65.5317C49.82 65.5317 50.4246 65.7464 50.9062 66.1753C51.3869 66.6045 51.6278 67.1963 51.6278 67.9505C51.6278 68.9125 51.2962 69.7124 50.633 70.3489Z" fill="#666666"/>
<path d="M85.3894 57.9436C84.3881 57.2552 83.0816 56.9102 81.4693 56.9102H75.2669C74.7465 56.9102 74.4603 57.1573 74.4088 57.6511L71.8732 73.566C71.8469 73.7224 71.8858 73.8654 71.9902 73.9953C72.0933 74.1255 72.2241 74.1903 72.3802 74.1903H75.5787C75.8907 74.1903 76.0986 74.0214 76.2028 73.6833L76.9051 69.1586C76.9309 68.9507 77.0219 68.7816 77.1781 68.6514C77.3342 68.5214 77.529 68.4364 77.7633 68.3974C77.9973 68.3588 78.2178 68.3394 78.4265 68.3394C78.6343 68.3394 78.8812 68.3525 79.1674 68.3784C79.4534 68.4044 79.6361 68.417 79.7135 68.417C81.9502 68.417 83.7052 67.7869 84.9797 66.5253C86.254 65.2642 86.891 63.5154 86.891 61.2787C86.8913 59.7445 86.3904 58.6328 85.3894 57.9433V57.9436ZM81.3912 64.3606C80.819 64.7507 79.9607 64.9456 78.8167 64.9456L77.5684 64.9847L78.2315 60.8108C78.2831 60.525 78.452 60.3819 78.7385 60.3819H79.4404C80.0125 60.3819 80.4675 60.4079 80.8061 60.4598C81.1436 60.5122 81.4693 60.6743 81.7813 60.9473C82.0934 61.2205 82.2494 61.6171 82.2494 62.1372C82.2494 63.2294 81.963 63.9704 81.3912 64.3606Z" fill="#666666"/>
</g>
<path d="M20.677 53.0238C19.4773 51.6564 17.3088 51.0702 14.5347 51.0702H6.48327C5.91569 51.0702 5.43339 51.483 5.34453 52.0427L1.9921 73.3046C1.92545 73.7238 2.25009 74.1037 2.67506 74.1037H7.64565L8.89403 66.1855L8.85533 66.4335C8.9442 65.8738 9.42291 65.461 9.98977 65.461H12.3518C16.992 65.461 20.6254 63.5763 21.6867 58.1241C21.7183 57.9629 21.7455 57.8059 21.7691 57.6525C21.6351 57.5816 21.6351 57.5816 21.7691 57.6525C22.0852 55.6374 21.767 54.2657 20.677 53.0238Z" fill="#27346A"/>
<path d="M10.796 56.9266C10.9286 56.8635 11.0762 56.8284 11.231 56.8284H17.5431C18.2906 56.8284 18.9879 56.8771 19.625 56.9796C19.8077 57.009 19.9847 57.0427 20.1567 57.0814C20.3287 57.1194 20.4957 57.1624 20.6576 57.2097C20.7386 57.2333 20.8182 57.2577 20.8963 57.2835C21.2094 57.3881 21.5011 57.5099 21.7691 57.6525C22.0852 55.6366 21.767 54.2657 20.677 53.0238C19.4766 51.6564 17.3088 51.0702 14.5347 51.0702H6.48255C5.91569 51.0702 5.43339 51.483 5.34453 52.0427L1.9921 73.3039C1.92545 73.7238 2.25009 74.1029 2.67434 74.1029H7.64565L10.2356 57.6791C10.2886 57.3422 10.505 57.0663 10.796 56.9266Z" fill="#666666"/>
<path d="M21.6868 58.1241C20.6255 63.5755 16.9921 65.461 12.3519 65.461H9.98915C9.42229 65.461 8.94358 65.8738 8.85543 66.4335L7.30248 76.2787C7.24443 76.6456 7.52822 76.9781 7.89944 76.9781H12.0896C12.5855 76.9781 13.0076 76.6169 13.085 76.1274L13.1259 75.9139L13.9156 70.9089L13.9665 70.6323C14.0439 70.1428 14.466 69.7816 14.9619 69.7816H15.589C19.648 69.7816 22.8263 68.1326 23.755 63.3634C24.1427 61.3705 23.9421 59.7064 22.9166 58.5376C22.6055 58.1836 22.2193 57.8912 21.7692 57.6525C21.7449 57.8066 21.7183 57.9628 21.6868 58.1241Z" fill="#9C9C9C"/>
<path d="M20.6583 57.2097C20.4963 57.1624 20.3293 57.1194 20.1573 57.0814C19.9853 57.0434 19.8076 57.0097 19.6256 56.9803C18.9878 56.8771 18.2912 56.8284 17.543 56.8284H11.2316C11.0761 56.8284 10.9285 56.8635 10.7966 56.9273C10.5049 57.0671 10.2892 57.3422 10.2362 57.6798L8.89466 66.1855L8.85596 66.4335C8.9441 65.8738 9.42282 65.461 9.98968 65.461H12.3524C16.9927 65.461 20.626 63.5763 21.6873 58.1241C21.7189 57.9629 21.7454 57.8066 21.7698 57.6525C21.501 57.5107 21.2101 57.3881 20.8969 57.2842C20.8188 57.2584 20.7392 57.2333 20.6583 57.2097Z" fill="#838383"/>
<g clip-path="url(#clip3_431_459)">
<path fill-rule="evenodd" clip-rule="evenodd" d="M178.633 60.6193C177.844 60.6193 177.207 61.2461 177.207 61.9924V72.3509C177.207 73.127 177.844 73.7539 178.633 73.7539C179.422 73.7539 180.059 73.127 180.059 72.3509V61.9924C180.059 61.2461 179.422 60.6193 178.633 60.6193ZM178.633 55.4551C177.753 55.4551 177.025 56.1715 177.025 57.0372C177.025 57.9029 177.753 58.6492 178.633 58.6492C179.513 58.6492 180.241 57.9327 180.241 57.0372C180.241 56.1715 179.513 55.4551 178.633 55.4551ZM192.527 61.9924C192.527 61.1267 191.829 60.7984 191.192 60.7984H184.124C183.426 60.7984 182.88 61.3357 182.88 61.9924C182.88 62.679 183.426 63.2164 184.124 63.2164H188.765L182.759 71.4553C182.577 71.6941 182.486 72.0225 182.486 72.2912C182.486 73.1569 183.183 73.6345 183.79 73.6345H191.283C191.981 73.6345 192.527 73.0972 192.527 72.4105C192.527 71.724 191.981 71.1867 191.283 71.1867H186.247L192.132 63.1268C192.436 62.7089 192.527 62.3507 192.527 61.9924ZM171.716 68.5001C171.716 70.2016 170.958 71.2465 169.229 71.2465C167.499 71.2465 166.771 70.2016 166.771 68.5001V63.2164H169.35C171.443 63.2164 171.716 64.3508 171.716 65.6045V68.5001ZM174.568 65.5448C174.568 62.6492 173.021 60.7686 169.411 60.7686H166.802V56.8581C166.802 56.0819 166.165 55.4551 165.406 55.4551C164.618 55.4551 163.981 56.0819 163.981 56.8581V68.5001C163.981 71.3957 165.558 73.754 169.289 73.754C172.99 73.754 174.598 71.3659 174.598 68.5001V65.6045V65.5448H174.568ZM203.66 60.6193C202.872 60.6193 202.234 61.2461 202.234 62.0222V68.5001C202.234 70.2016 201.476 71.2463 199.747 71.2463C198.018 71.2463 197.29 70.2016 197.29 68.5001V62.0222C197.29 61.2461 196.653 60.6193 195.894 60.6193C195.105 60.6193 194.468 61.2461 194.468 62.0222V68.5001C194.468 71.3956 196.046 73.7539 199.777 73.7539C203.478 73.7539 205.086 71.3657 205.086 68.5001V62.0222C205.056 61.2461 204.419 60.6193 203.66 60.6193ZM225.29 65.9031C225.29 63.0075 223.925 60.6492 220.224 60.6492C218.555 60.6492 217.372 61.1269 216.553 61.9328C215.734 61.1567 214.551 60.6492 212.882 60.6492C209.181 60.6492 207.816 63.0373 207.816 65.9031V72.3808C207.816 73.1569 208.453 73.7839 209.212 73.7839C210 73.7839 210.637 73.1569 210.637 72.3808V65.9031C210.637 64.2016 211.183 63.1567 212.882 63.1567C214.611 63.1567 215.127 64.2016 215.127 65.9031V72.3808C215.127 73.1569 215.765 73.7839 216.522 73.7839C217.311 73.7839 217.949 73.1569 217.949 72.3808V65.9031C217.949 64.2016 218.494 63.1567 220.194 63.1567C221.922 63.1567 222.439 64.2016 222.439 65.9031V72.3808C222.439 73.1569 223.075 73.7839 223.834 73.7839C224.623 73.7839 225.26 73.1569 225.26 72.3808L225.29 65.9031ZM138.043 60.6491C139.044 61.3656 140.44 61.1566 141.168 60.1715L143.777 56.6192C144.505 55.6341 144.292 54.2609 143.291 53.5445C142.29 52.8281 140.895 53.037 140.167 54.0221L137.527 57.5744C136.83 58.5596 137.042 59.9327 138.043 60.6491ZM149.996 55.6341C148.994 54.9177 147.599 55.1266 146.871 56.1117L136.375 70.321C135.646 71.3061 135.859 72.6793 136.86 73.3957C137.861 74.1122 139.256 73.9032 139.985 72.9181L150.481 58.7088C151.239 57.7237 150.997 56.3505 149.996 55.6341ZM137.042 54.4998C137.77 53.5147 137.558 52.1415 136.557 51.4251C135.556 50.7087 134.16 50.9176 133.432 51.9027C132.704 52.8878 132.916 54.261 133.917 54.9774C134.918 55.6938 136.314 55.4849 137.042 54.4998ZM152.968 74.0226C151.967 73.3061 150.572 73.5151 149.844 74.5002C149.116 75.4853 149.328 76.8585 150.329 77.5749C151.33 78.2914 152.726 78.0823 153.454 77.0973C154.182 76.1122 153.97 74.739 152.968 74.0226ZM148.873 68.3807C147.872 67.6643 146.477 67.8732 145.749 68.8583L143.109 72.4106C142.381 73.3957 142.594 74.7688 143.595 75.4853C144.596 76.2017 145.991 75.9928 146.719 75.0077L149.359 71.4553C150.087 70.4703 149.874 69.0971 148.873 68.3807Z" fill="#666666"/>
</g>
<defs>
<clipPath id="clip0_431_459">
<rect width="40.3902" height="40.7057" fill="white" transform="translate(56.1221 0.84803)"/>
</clipPath>
<clipPath id="clip1_431_459">
<rect width="40.3902" height="40.7057" fill="white" transform="translate(111.609 0.84803)"/>
</clipPath>
<clipPath id="clip2_431_459">
<rect width="93" height="57" fill="white" transform="translate(21 21)"/>
</clipPath>
<clipPath id="clip3_431_459">
<rect width="93" height="27" fill="white" transform="translate(133 51)"/>
</clipPath>
</defs>
</svg>
