<svg width="25" height="25" viewBox="0 0 25 25" fill="none" xmlns="http://www.w3.org/2000/svg">
<path d="M0 1.85714C0 1.62981 0.0862881 1.4118 0.239882 1.25105C0.393475 1.09031 0.601793 1 0.819008 1H3.27603C3.45872 1.00005 3.63615 1.06403 3.7801 1.18176C3.92405 1.29948 4.02626 1.4642 4.07047 1.64971L4.73386 4.42857H23.7512C23.8756 4.42861 23.9984 4.4583 24.1102 4.51541C24.222 4.57251 24.3199 4.65551 24.3965 4.75813C24.473 4.86074 24.5263 4.98026 24.5521 5.10761C24.578 5.23497 24.5758 5.36681 24.5457 5.49314L22.0886 15.7789C22.0444 15.9644 21.9422 16.1291 21.7983 16.2468C21.6543 16.3645 21.4769 16.4285 21.2942 16.4286H6.55206C6.36937 16.4285 6.19194 16.3645 6.04799 16.2468C5.90404 16.1291 5.80183 15.9644 5.75762 15.7789L2.6372 2.71429H0.819008C0.601793 2.71429 0.393475 2.62398 0.239882 2.46323C0.0862881 2.30249 0 2.08447 0 1.85714ZM5.14337 6.14286L7.19089 14.7143H20.6554L22.7029 6.14286H5.14337ZM8.19007 19.8571C7.75565 19.8571 7.33901 20.0378 7.03182 20.3592C6.72464 20.6807 6.55206 21.1168 6.55206 21.5714C6.55206 22.0261 6.72464 22.4621 7.03182 22.7836C7.33901 23.1051 7.75565 23.2857 8.19007 23.2857C8.6245 23.2857 9.04114 23.1051 9.34833 22.7836C9.65551 22.4621 9.82809 22.0261 9.82809 21.5714C9.82809 21.1168 9.65551 20.6807 9.34833 20.3592C9.04114 20.0378 8.6245 19.8571 8.19007 19.8571ZM4.91405 21.5714C4.91405 20.6621 5.2592 19.79 5.87357 19.1471C6.48795 18.5041 7.32122 18.1429 8.19007 18.1429C9.05893 18.1429 9.8922 18.5041 10.5066 19.1471C11.121 19.79 11.4661 20.6621 11.4661 21.5714C11.4661 22.4807 11.121 23.3528 10.5066 23.9958C9.8922 24.6388 9.05893 25 8.19007 25C7.32122 25 6.48795 24.6388 5.87357 23.9958C5.2592 23.3528 4.91405 22.4807 4.91405 21.5714ZM19.6562 19.8571C19.2218 19.8571 18.8051 20.0378 18.4979 20.3592C18.1907 20.6807 18.0182 21.1168 18.0182 21.5714C18.0182 22.0261 18.1907 22.4621 18.4979 22.7836C18.8051 23.1051 19.2218 23.2857 19.6562 23.2857C20.0906 23.2857 20.5072 23.1051 20.8144 22.7836C21.1216 22.4621 21.2942 22.0261 21.2942 21.5714C21.2942 21.1168 21.1216 20.6807 20.8144 20.3592C20.5072 20.0378 20.0906 19.8571 19.6562 19.8571ZM16.3801 21.5714C16.3801 20.6621 16.7253 19.79 17.3397 19.1471C17.9541 18.5041 18.7873 18.1429 19.6562 18.1429C20.525 18.1429 21.3583 18.5041 21.9727 19.1471C22.5871 19.79 22.9322 20.6621 22.9322 21.5714C22.9322 22.4807 22.5871 23.3528 21.9727 23.9958C21.3583 24.6388 20.525 25 19.6562 25C18.7873 25 17.9541 24.6388 17.3397 23.9958C16.7253 23.3528 16.3801 22.4807 16.3801 21.5714Z" fill="white"/>
</svg>
