<svg width="17" height="22" viewBox="0 0 17 22" fill="none" xmlns="http://www.w3.org/2000/svg">
<path d="M12.7857 4.83952V2.9911C12.7857 2.16312 12.7857 1.74913 12.6129 1.48151C12.4617 1.24736 12.226 1.08137 11.9556 1.0185C11.6464 0.946664 11.2595 1.08814 10.4856 1.3711L2.69266 4.22059C2.08283 4.44357 1.77791 4.55507 1.55302 4.75157C1.35435 4.92514 1.20113 5.14512 1.1068 5.39216C1 5.67184 1 5.99809 1 6.65059V11.3037M5.28571 16.6905H11.7143M5.28571 12.9198H11.7143M5.28571 9.14899H11.7143M4.42857 21H12.5714C13.7715 21 14.3716 21 14.83 20.7651C15.2332 20.5585 15.561 20.2289 15.7664 19.8235C16 19.3625 16 18.7592 16 17.5524V8.28708C16 7.08031 16 6.47694 15.7664 6.01602C15.561 5.61057 15.2332 5.28094 14.83 5.07437C14.3716 4.83952 13.7715 4.83952 12.5714 4.83952H4.42857C3.22846 4.83952 2.6284 4.83952 2.17002 5.07437C1.76681 5.28094 1.439 5.61057 1.23356 6.01602C1 6.47694 1 7.08031 1 8.28708V17.5524C1 18.7592 1 19.3625 1.23356 19.8235C1.439 20.2289 1.76681 20.5585 2.17002 20.7651C2.6284 21 3.22845 21 4.42857 21Z" stroke="#188803" stroke-width="2" stroke-linecap="round" stroke-linejoin="round"/>
</svg>
