<svg width="106" height="64" viewBox="0 0 106 64" fill="none" xmlns="http://www.w3.org/2000/svg">
<g clip-path="url(#clip0_88_432)">
<path d="M10.9683 63.9768H94.5225L52.9671 22.244L10.9683 63.9768Z" fill="#7BB51C"/>
<path d="M9.37153 61.9246L15.8812 55.547L13.7129 53.3137L9.62425 57.3212L2.42159 49.9048L0 52.2774L9.37153 61.9246ZM17.31 54.0945L23.9801 47.5576L22.1484 45.6732L17.9131 49.8224L15.8794 47.7284L19.2732 44.403L17.3565 42.4314L13.9626 45.755L12.2201 43.9614L16.316 39.9473L14.4855 38.0636L7.83655 44.5787L17.31 54.0945ZM39.1417 23.1054C36.4518 20.336 31.7853 20.6673 29.538 22.8697C27.2901 25.0721 26.1429 29.4636 29.3172 32.7314C32.804 36.3203 36.9524 35.0168 39.2002 32.8156C42.5145 29.5684 41.3347 25.3629 39.1417 23.1054ZM37.1647 30.9191C35.6767 32.3771 33.8577 31.9815 31.7793 29.8415C30.0326 28.0438 30.1375 26.2375 31.4077 24.9928C32.2811 24.1369 34.0549 23.3713 36.1653 25.544C38.573 28.0226 38.6526 29.4612 37.1647 30.9191ZM46.6441 25.4053L49.1049 22.9933L45.4029 19.1827L43.187 9.92372L40.3661 12.6882L41.8335 17.941L36.8758 16.1075L34.2159 18.7133L42.6683 21.439L46.6441 25.4053ZM33.5235 38.2756C33.5235 38.2756 27.5344 36.2234 27.2497 36.2731C27.1574 36.2882 28.5362 32.6036 25.4385 30.9706C25.4385 30.9706 23.1399 29.721 20.8396 31.8198L15.9367 36.6722L25.3884 46.2317L27.889 43.7815L22.7744 38.5179L31.0422 40.7069L33.5235 38.2756ZM24.2473 36.963C22.8577 38.3222 22.6701 38.4294 22.6701 38.4294L20.4144 36.1077C20.3372 36.0284 21.9723 34.6207 22.2298 34.3681C22.339 34.2609 23.3571 33.594 24.1996 34.4608C24.1996 34.4608 25.6363 35.6013 24.2473 36.963ZM45.8806 11.7481L43.6936 9.53364L53.2413 0.0232544L56.3661 3.18692L52.9264 9.9855L59.9391 6.80487L62.9457 9.84982L53.3981 19.3602L51.0935 17.027L56.1333 12.0074L49.2388 15.1486L47.8136 13.7052L51.0181 6.78791L45.8806 11.7481ZM62.4584 28.5338L55.8384 21.8315L65.3866 12.3211L72.0253 19.0434L70.0965 20.9647L65.9373 16.7538L64.3818 18.3026L67.6622 21.6244L65.6538 23.6245L62.3932 20.3227L60.3064 22.4009L64.4264 26.5725L62.4584 28.5338ZM84.2877 31.4594L86.7479 33.9513L79.5229 41.1473L83.5645 45.2383L81.2412 47.554L74.7394 40.9704L84.2877 31.4594ZM82.9596 49.2942L92.5078 39.7838L94.9095 42.2152L85.3613 51.7249L82.9596 49.2942ZM89.7153 56.1358L87.4692 53.8613L97.0181 44.3515L100.279 47.6515L97.4928 57.5259L103.813 51.2301L106 53.4446L96.4523 62.9543L93.6007 60.0687L96.0561 49.7024L89.7153 56.1358ZM79.9729 27.0904L74.1737 21.2179L64.6056 30.7089L67.0657 33.1996L72.2823 28.0038L70.4047 36.5808L72.9234 39.1314C72.9234 39.1314 74.9089 32.9961 74.9698 32.7405C74.9698 32.7405 77.1212 33.9307 79.4819 31.8925C79.4819 31.8925 81.7461 29.6768 79.9729 27.0904ZM76.4318 29.8718C76.4318 29.8718 75.2129 30.6938 74.1387 29.6065L72.4608 27.8269L74.7437 25.5525L76.5012 27.3321C76.696 27.5295 77.9276 28.4599 76.4318 29.8718Z" fill="black"/>
</g>
<defs>
<clipPath id="clip0_88_432">
<rect width="106" height="64" fill="white"/>
</clipPath>
</defs>
</svg>
