<svg width="24" height="24" viewBox="0 0 24 24" fill="none" xmlns="http://www.w3.org/2000/svg">
<path d="M13.7789 4C10.3499 4 7.55772 6.79222 7.55772 10.2211C7.55772 11.7108 8.08019 13.0765 8.95747 14.1482L4.44714 18.6586C4.20019 18.9055 4.20019 19.3059 4.44714 19.5529C4.6941 19.7998 5.09448 19.7998 5.34143 19.5529L9.85176 15.0425C10.9235 15.9198 12.2892 16.4423 13.7789 16.4423C17.2078 16.4423 20 13.6501 20 10.2211C20 6.79222 17.2078 4 13.7789 4ZM13.7789 5.24423C16.5346 5.24423 18.7558 7.46537 18.7558 10.2211C18.7558 12.9769 16.5346 15.1981 13.7789 15.1981C11.0231 15.1981 8.80194 12.9769 8.80194 10.2211C8.80194 7.46537 11.0231 5.24423 13.7789 5.24423Z" fill="black"/>
</svg>
