<svg width="22" height="22" viewBox="0 0 22 22" fill="none" xmlns="http://www.w3.org/2000/svg">
<g clip-path="url(#clip0_528_460)">
<path d="M4.58333 7C4.58333 6.241 5.24008 6 6 6H7.79167C8.5 6 9 6.241 9 7C9 7.759 8.55158 8 7.79167 8H5.95833C5.19842 8 4.58333 7.759 4.58333 7ZM6 12.5H9.625C10.5 12.5 11 12.2173 11 11.4583C11 10.6993 10.5 10.3371 9.625 10.3371H5.95833C5.09998 10.3371 4.58333 10.6993 4.58333 11.4583C4.58333 12.2173 5.5 12.5 6 12.5ZM19.5048 17.875V19C19.5048 21.0222 18.5222 22 16.5 22H3.66667C1.6445 22 0 20.3555 0 18.3333V4.125C0 1.85075 1.85075 0 4.125 0H9.625C10.3849 0 11 0.176 11 0.935C11 1.694 10.3849 2 9.625 2H4.125C3 2 2 2.5 2 4.125V18.3333C2 19.5 2.5 20 3.66667 20C4.17175 20 5 20 5 19.25V17.875C5 16.1058 6.0225 15.5 7.79167 15.5H15V13.2917C15 12.5 15.2818 11.9167 16.0417 11.9167C16.8016 11.9167 16.9583 12.5327 16.9583 13.2917V15.5C18.5093 15.7246 19.5048 16.5 19.5048 17.875ZM17.4167 17.875C17.4167 17.6229 17.2113 17.4167 16.9583 17.4167H7.79167C7.53867 17.4167 7.33333 17.6229 7.33333 17.875V18.3333C7.33333 18.6496 7.4085 19.7076 7.33333 20H16.5C17.0051 20 17.4167 20 17.4167 19V17.875ZM21.9441 4.26892C21.8121 3.90683 21.4674 3.66667 21.0833 3.66667H18.3324L17.3589 0.935C17.2251 0.576583 16.8823 0.33825 16.5 0.33825C16.1177 0.33825 15.774 0.576583 15.6411 0.935L14.6676 3.66667H11.9167C11.5326 3.66667 11.1888 3.90683 11.0568 4.26708C10.9239 4.62825 11.0312 5.0325 11.3245 5.28183L13.5034 7.05558L12.6408 9.82025C12.5244 10.1915 12.6546 10.5958 12.9653 10.8295C13.1276 10.9514 13.321 11.0128 13.5153 11.0128C13.6932 11.0128 13.871 10.9615 14.025 10.8579L16.5073 9.19692L19.0318 10.8405C19.3573 11.0523 19.7826 11.0357 20.0915 10.7983C20.4004 10.5609 20.5251 10.1539 20.4023 9.7845L19.5048 7.05283L21.6737 5.28642C21.9679 5.038 22.0761 4.63283 21.9441 4.27075V4.26892Z" fill="#188803"/>
</g>
<defs>
<clipPath id="clip0_528_460">
<rect width="22" height="22" fill="white"/>
</clipPath>
</defs>
</svg>
