<svg width="80" height="16" viewBox="0 0 80 16" fill="none" xmlns="http://www.w3.org/2000/svg">
<g clip-path="url(#clip0_536_486)">
<path d="M8.80278 1.38892C8.65556 1.08336 8.34444 0.888916 8.00278 0.888916C7.66111 0.888916 7.35278 1.08336 7.20278 1.38892L5.41667 5.06392L1.42778 5.6528C1.09444 5.7028 0.816667 5.93614 0.713889 6.25558C0.611111 6.57503 0.694444 6.9278 0.933333 7.16392L3.82778 10.0278L3.14444 14.075C3.08889 14.4084 3.22778 14.7472 3.50278 14.9445C3.77778 15.1417 4.14167 15.1667 4.44167 15.0084L8.00556 13.1056L11.5694 15.0084C11.8694 15.1667 12.2333 15.1445 12.5083 14.9445C12.7833 14.7445 12.9222 14.4084 12.8667 14.075L12.1806 10.0278L15.075 7.16392C15.3139 6.9278 15.4 6.57503 15.2944 6.25558C15.1889 5.93614 14.9139 5.7028 14.5806 5.6528L10.5889 5.06392L8.80278 1.38892Z" fill="#DA6714"/>
</g>
<g clip-path="url(#clip1_536_486)">
<path d="M24.8028 1.38892C24.6556 1.08336 24.3444 0.888916 24.0028 0.888916C23.6611 0.888916 23.3528 1.08336 23.2028 1.38892L21.4167 5.06392L17.4278 5.6528C17.0944 5.7028 16.8167 5.93614 16.7139 6.25558C16.6111 6.57503 16.6944 6.9278 16.9333 7.16392L19.8278 10.0278L19.1444 14.075C19.0889 14.4084 19.2278 14.7472 19.5028 14.9445C19.7778 15.1417 20.1417 15.1667 20.4417 15.0084L24.0056 13.1056L27.5694 15.0084C27.8694 15.1667 28.2333 15.1445 28.5083 14.9445C28.7833 14.7445 28.9222 14.4084 28.8667 14.075L28.1806 10.0278L31.075 7.16392C31.3139 6.9278 31.4 6.57503 31.2944 6.25558C31.1889 5.93614 30.9139 5.7028 30.5806 5.6528L26.5889 5.06392L24.8028 1.38892Z" fill="#DA6714"/>
</g>
<g clip-path="url(#clip2_536_486)">
<g clip-path="url(#clip3_536_486)">
<g clip-path="url(#clip4_536_486)">
<path d="M38.3161 5.50104L40.0028 2.03056L41.6895 5.50104L41.9204 5.97612L42.4429 6.05321L46.2136 6.60949L43.4772 9.31696L43.1078 9.68251L43.1946 10.1949L43.8432 14.0209L40.4765 12.2234L40.0056 11.972L39.5346 12.2234L36.1677 14.021L36.8138 10.1943L36.9003 9.68222L36.5311 9.31696L33.7947 6.60947L37.5627 6.05319L38.0852 5.97606L38.3161 5.50104Z" fill="white" stroke="#DA6714" stroke-width="2"/>
</g>
</g>
</g>
<g clip-path="url(#clip5_536_486)">
<g clip-path="url(#clip6_536_486)">
<path d="M54.3161 5.50104L56.0028 2.03056L57.6895 5.50104L57.9204 5.97612L58.4429 6.05321L62.2136 6.60949L59.4772 9.31696L59.1078 9.68251L59.1946 10.1949L59.8432 14.0209L56.4765 12.2234L56.0056 11.972L55.5346 12.2234L52.1677 14.021L52.8138 10.1943L52.9003 9.68222L52.5311 9.31696L49.7947 6.60947L53.5627 6.05319L54.0852 5.97606L54.3161 5.50104Z" fill="white" stroke="#DA6714" stroke-width="2"/>
</g>
</g>
<g clip-path="url(#clip7_536_486)">
<path d="M70.3161 5.50104L72.0028 2.03056L73.6895 5.50104L73.9204 5.97612L74.4429 6.05321L78.2136 6.60949L75.4772 9.31696L75.1078 9.68251L75.1946 10.1949L75.8432 14.0209L72.4765 12.2234L72.0056 11.972L71.5346 12.2234L68.1677 14.021L68.8138 10.1943L68.9003 9.68222L68.5311 9.31696L65.7947 6.60947L69.5627 6.05319L70.0852 5.97606L70.3161 5.50104Z" fill="white" stroke="#DA6714" stroke-width="2"/>
</g>
<defs>
<clipPath id="clip0_536_486">
<rect width="16" height="16" fill="white"/>
</clipPath>
<clipPath id="clip1_536_486">
<rect width="16" height="16" fill="white" transform="translate(16)"/>
</clipPath>
<clipPath id="clip2_536_486">
<rect width="16" height="16" fill="white" transform="translate(32)"/>
</clipPath>
<clipPath id="clip3_536_486">
<rect width="16" height="16" fill="white" transform="translate(32)"/>
</clipPath>
<clipPath id="clip4_536_486">
<rect width="16" height="16" fill="white" transform="translate(32)"/>
</clipPath>
<clipPath id="clip5_536_486">
<rect width="16" height="16" fill="white" transform="translate(48)"/>
</clipPath>
<clipPath id="clip6_536_486">
<rect width="16" height="16" fill="white" transform="translate(48)"/>
</clipPath>
<clipPath id="clip7_536_486">
<rect width="16" height="16" fill="white" transform="translate(64)"/>
</clipPath>
</defs>
</svg>
