<svg width="80" height="16" viewBox="0 0 80 16" fill="none" xmlns="http://www.w3.org/2000/svg">
<g clip-path="url(#clip0_110_71)">
<path d="M8.80278 1.38889C8.65556 1.08333 8.34444 0.888885 8.00278 0.888885C7.66111 0.888885 7.35278 1.08333 7.20278 1.38889L5.41667 5.06389L1.42778 5.65277C1.09444 5.70277 0.816667 5.93611 0.713889 6.25555C0.611111 6.575 0.694444 6.92777 0.933333 7.16389L3.82778 10.0278L3.14444 14.075C3.08889 14.4083 3.22778 14.7472 3.50278 14.9444C3.77778 15.1417 4.14167 15.1667 4.44167 15.0083L8.00556 13.1056L11.5694 15.0083C11.8694 15.1667 12.2333 15.1444 12.5083 14.9444C12.7833 14.7444 12.9222 14.4083 12.8667 14.075L12.1806 10.0278L15.075 7.16389C15.3139 6.92777 15.4 6.575 15.2944 6.25555C15.1889 5.93611 14.9139 5.70277 14.5806 5.65277L10.5889 5.06389L8.80278 1.38889Z" fill="#DA6714"/>
</g>
<g clip-path="url(#clip1_110_71)">
<path d="M24.8028 1.38889C24.6556 1.08333 24.3444 0.888885 24.0028 0.888885C23.6611 0.888885 23.3528 1.08333 23.2028 1.38889L21.4167 5.06389L17.4278 5.65277C17.0944 5.70277 16.8167 5.93611 16.7139 6.25555C16.6111 6.575 16.6944 6.92777 16.9333 7.16389L19.8278 10.0278L19.1444 14.075C19.0889 14.4083 19.2278 14.7472 19.5028 14.9444C19.7778 15.1417 20.1417 15.1667 20.4417 15.0083L24.0056 13.1056L27.5694 15.0083C27.8694 15.1667 28.2333 15.1444 28.5083 14.9444C28.7833 14.7444 28.9222 14.4083 28.8667 14.075L28.1806 10.0278L31.075 7.16389C31.3139 6.92777 31.4 6.575 31.2944 6.25555C31.1889 5.93611 30.9139 5.70277 30.5806 5.65277L26.5889 5.06389L24.8028 1.38889Z" fill="#DA6714"/>
</g>
<g clip-path="url(#clip2_110_71)">
<path d="M40.8028 1.38889C40.6556 1.08333 40.3444 0.888885 40.0028 0.888885C39.6611 0.888885 39.3528 1.08333 39.2028 1.38889L37.4167 5.06389L33.4278 5.65277C33.0944 5.70277 32.8167 5.93611 32.7139 6.25555C32.6111 6.575 32.6944 6.92777 32.9333 7.16389L35.8278 10.0278L35.1444 14.075C35.0889 14.4083 35.2278 14.7472 35.5028 14.9444C35.7778 15.1417 36.1417 15.1667 36.4417 15.0083L40.0056 13.1056L43.5694 15.0083C43.8694 15.1667 44.2333 15.1444 44.5083 14.9444C44.7833 14.7444 44.9222 14.4083 44.8667 14.075L44.1806 10.0278L47.075 7.16389C47.3139 6.92777 47.4 6.575 47.2944 6.25555C47.1889 5.93611 46.9139 5.70277 46.5806 5.65277L42.5889 5.06389L40.8028 1.38889Z" fill="#DA6714"/>
</g>
<g clip-path="url(#clip3_110_71)">
<path d="M56.8028 1.38889C56.6556 1.08333 56.3444 0.888885 56.0028 0.888885C55.6611 0.888885 55.3528 1.08333 55.2028 1.38889L53.4167 5.06389L49.4278 5.65277C49.0944 5.70277 48.8167 5.93611 48.7139 6.25555C48.6111 6.575 48.6944 6.92777 48.9333 7.16389L51.8278 10.0278L51.1444 14.075C51.0889 14.4083 51.2278 14.7472 51.5028 14.9444C51.7778 15.1417 52.1417 15.1667 52.4417 15.0083L56.0056 13.1056L59.5694 15.0083C59.8694 15.1667 60.2333 15.1444 60.5083 14.9444C60.7833 14.7444 60.9222 14.4083 60.8667 14.075L60.1806 10.0278L63.075 7.16389C63.3139 6.92777 63.4 6.575 63.2944 6.25555C63.1889 5.93611 62.9139 5.70277 62.5806 5.65277L58.5889 5.06389L56.8028 1.38889Z" fill="#DA6714"/>
</g>
<g clip-path="url(#clip4_110_71)">
<path d="M72.0028 2.03053L73.6895 5.50101L73.9204 5.97608L74.4429 6.05318L78.2136 6.60946L75.4772 9.31693L75.1078 9.68248L75.1946 10.1949L75.8432 14.0209L72.4765 12.2234L72.0056 11.9719L71.5346 12.2234L68.1677 14.021L68.8138 10.1943L68.9003 9.68219L68.5311 9.31693L65.7947 6.60944L69.5627 6.05316L70.0852 5.97603L70.3161 5.50101L72.0028 2.03053Z" fill="white" stroke="#DA6714" stroke-width="2"/>
</g>
<defs>
<clipPath id="clip0_110_71">
<rect width="16" height="16" fill="white"/>
</clipPath>
<clipPath id="clip1_110_71">
<rect width="16" height="16" fill="white" transform="translate(16)"/>
</clipPath>
<clipPath id="clip2_110_71">
<rect width="16" height="16" fill="white" transform="translate(32)"/>
</clipPath>
<clipPath id="clip3_110_71">
<rect width="16" height="16" fill="white" transform="translate(48)"/>
</clipPath>
<clipPath id="clip4_110_71">
<rect width="16" height="16" fill="white" transform="translate(64)"/>
</clipPath>
</defs>
</svg>
