<svg width="32" height="33" viewBox="0 0 32 33" fill="none" xmlns="http://www.w3.org/2000/svg">
<path d="M16 15.1667V21.8333M16 28.5C14.4241 28.5 12.8637 28.1896 11.4078 27.5866C9.95189 26.9835 8.62902 26.0996 7.51472 24.9853C6.40042 23.871 5.5165 22.5481 4.91345 21.0922C4.31039 19.6363 4 18.0759 4 16.5C4 14.9241 4.31039 13.3637 4.91345 11.9078C5.5165 10.4519 6.40042 9.12902 7.51472 8.01472C8.62902 6.90042 9.95189 6.0165 11.4078 5.41345C12.8637 4.81039 14.4241 4.5 16 4.5C19.1826 4.5 22.2348 5.76428 24.4853 8.01472C26.7357 10.2652 28 13.3174 28 16.5C28 19.6826 26.7357 22.7348 24.4853 24.9853C22.2348 27.2357 19.1826 28.5 16 28.5ZM16.0667 11.1667V11.3H15.9333V11.1667H16.0667Z" stroke="#0B96CC" stroke-width="2" stroke-linecap="round" stroke-linejoin="round"/>
</svg>
