<svg width="178" height="25" viewBox="0 0 178 25" fill="none" xmlns="http://www.w3.org/2000/svg">
<rect width="178" height="25" fill="#FEE07D"/>
<path d="M10.4971 18V8.27246H12.2061L16.376 14.7666V8.27246H18.2012V18H16.4922L12.3154 11.4922V18H10.4971ZM25.5908 17.959C25.1624 18.1094 24.693 18.1846 24.1826 18.1846C23.6722 18.1846 23.2028 18.1094 22.7744 17.959C22.3506 17.8086 21.9746 17.583 21.6465 17.2822C21.3229 16.9814 21.07 16.585 20.8877 16.0928C20.7054 15.596 20.6143 15.0241 20.6143 14.377V8.27246H22.4326V14.4043C22.4326 15.0697 22.5716 15.5983 22.8496 15.9902C23.1322 16.3776 23.5765 16.5713 24.1826 16.5713C24.7933 16.5713 25.2422 16.3776 25.5293 15.9902C25.8164 15.5983 25.96 15.0697 25.96 14.4043V8.27246H27.7852V14.377C27.7852 15.0241 27.6917 15.596 27.5049 16.0928C27.3226 16.585 27.0651 16.9814 26.7324 17.2822C26.3997 17.583 26.0192 17.8086 25.5908 17.959ZM30.0068 18V8.27246H35.9609V9.83789H31.8252V12.3604H35.4277V13.9258H31.8252V16.4346H36.3096V18H30.0068ZM41.4092 18.1846C40.5068 18.1846 39.7412 17.9863 39.1123 17.5898C38.4834 17.1888 38.0413 16.6351 37.7861 15.9287L39.4541 15.4092C39.6182 15.7874 39.8688 16.0768 40.2061 16.2773C40.5479 16.4733 40.9489 16.5713 41.4092 16.5713C41.8285 16.5713 42.1748 16.4665 42.4482 16.2568C42.7262 16.0472 42.8652 15.7601 42.8652 15.3955C42.8652 15.2041 42.8083 15.0332 42.6943 14.8828C42.585 14.7279 42.4346 14.5957 42.2432 14.4863C42.0563 14.3724 41.8398 14.2676 41.5938 14.1719C41.3522 14.0716 41.0947 13.9714 40.8213 13.8711C40.5524 13.7663 40.2835 13.6569 40.0146 13.543C39.7458 13.4245 39.4883 13.2832 39.2422 13.1191C39.0007 12.9551 38.7842 12.7728 38.5928 12.5723C38.4059 12.3672 38.2555 12.1188 38.1416 11.8271C38.0322 11.5309 37.9775 11.2028 37.9775 10.8428C37.9775 10.2731 38.1234 9.77637 38.415 9.35254C38.7113 8.92871 39.1032 8.61198 39.5908 8.40234C40.0785 8.19271 40.6299 8.08789 41.2451 8.08789C42.1383 8.08789 42.8675 8.27702 43.4326 8.65527C44.0023 9.03353 44.4056 9.57357 44.6426 10.2754L42.8926 10.7744C42.7604 10.4372 42.5531 10.1751 42.2705 9.98828C41.988 9.79688 41.6598 9.70117 41.2861 9.70117C40.8805 9.70117 40.5501 9.80371 40.2949 10.0088C40.0397 10.2093 39.9121 10.4782 39.9121 10.8154C39.9121 11.016 39.9668 11.196 40.0762 11.3555C40.1901 11.515 40.3405 11.654 40.5273 11.7725C40.7188 11.8864 40.9375 11.9958 41.1836 12.1006C41.4297 12.2008 41.6872 12.3011 41.9561 12.4014C42.2295 12.5016 42.5007 12.6087 42.7695 12.7227C43.0384 12.8366 43.2959 12.9733 43.542 13.1328C43.7881 13.2878 44.0046 13.4632 44.1914 13.6592C44.3828 13.8506 44.5332 14.0876 44.6426 14.3701C44.7565 14.6481 44.8135 14.958 44.8135 15.2998C44.8135 16.1748 44.5013 16.8743 43.877 17.3984C43.2526 17.9225 42.43 18.1846 41.4092 18.1846ZM48.5391 18V9.83789H45.6133V8.27246H53.3174V9.83789H50.3643V18H48.5391ZM61.4521 18H59.2988L57.5215 14.541H56.2568V18H54.4385V8.27246H57.7471C58.0934 8.27246 58.4261 8.30892 58.7451 8.38184C59.0641 8.45475 59.3672 8.57324 59.6543 8.7373C59.9414 8.89681 60.1898 9.09505 60.3994 9.33203C60.6136 9.56445 60.7822 9.85612 60.9053 10.207C61.0283 10.5534 61.0898 10.9385 61.0898 11.3623C61.0898 12.0459 60.9395 12.6315 60.6387 13.1191C60.3379 13.6022 59.9141 13.9645 59.3672 14.2061L61.4521 18ZM56.2568 9.83789V12.9893H57.5352C57.763 12.9893 57.9727 12.9642 58.1641 12.9141C58.3555 12.8594 58.5332 12.7751 58.6973 12.6611C58.8659 12.5426 58.9958 12.374 59.0869 12.1553C59.1826 11.9365 59.2305 11.6768 59.2305 11.376C59.2305 10.8564 59.0869 10.4714 58.7998 10.2207C58.5173 9.96549 58.1322 9.83789 57.6445 9.83789H56.2568ZM69.5664 16.8857C68.8372 17.7516 67.846 18.1846 66.5928 18.1846C65.3395 18.1846 64.346 17.7516 63.6123 16.8857C62.8831 16.0153 62.5186 14.762 62.5186 13.126C62.5186 11.499 62.8831 10.2526 63.6123 9.38672C64.346 8.52083 65.3395 8.08789 66.5928 8.08789C67.846 8.08789 68.8372 8.52083 69.5664 9.38672C70.3001 10.2526 70.667 11.499 70.667 13.126C70.667 14.762 70.3001 16.0153 69.5664 16.8857ZM66.5928 16.5713C67.2809 16.5713 67.821 16.2979 68.2129 15.751C68.6094 15.1995 68.8076 14.3245 68.8076 13.126C68.8076 11.932 68.6094 11.0638 68.2129 10.5215C67.821 9.97461 67.2809 9.70117 66.5928 9.70117C65.1208 9.70117 64.3848 10.8428 64.3848 13.126C64.3848 15.4229 65.1208 16.5713 66.5928 16.5713ZM75.4658 18V8.27246H78.6035C79.6243 8.27246 80.4469 8.55046 81.0713 9.10645C81.6956 9.65788 82.0078 10.4189 82.0078 11.3896C82.0078 12.3877 81.6888 13.1738 81.0508 13.748C80.4173 14.3223 79.5833 14.6094 78.5488 14.6094H77.2842V18H75.4658ZM77.2842 13.0439H78.4326C78.9658 13.0439 79.3828 12.9004 79.6836 12.6133C79.9889 12.3262 80.1416 11.9229 80.1416 11.4033C80.1416 10.8975 79.9935 10.5101 79.6973 10.2412C79.4056 9.97233 79.0046 9.83789 78.4941 9.83789H77.2842V13.0439ZM90.71 18H88.5566L86.7793 14.541H85.5146V18H83.6963V8.27246H87.0049C87.3512 8.27246 87.6839 8.30892 88.0029 8.38184C88.3219 8.45475 88.625 8.57324 88.9121 8.7373C89.1992 8.89681 89.4476 9.09505 89.6572 9.33203C89.8714 9.56445 90.04 9.85612 90.1631 10.207C90.2861 10.5534 90.3477 10.9385 90.3477 11.3623C90.3477 12.0459 90.1973 12.6315 89.8965 13.1191C89.5957 13.6022 89.1719 13.9645 88.625 14.2061L90.71 18ZM85.5146 9.83789V12.9893H86.793C87.0208 12.9893 87.2305 12.9642 87.4219 12.9141C87.6133 12.8594 87.791 12.7751 87.9551 12.6611C88.1237 12.5426 88.2536 12.374 88.3447 12.1553C88.4404 11.9365 88.4883 11.6768 88.4883 11.376C88.4883 10.8564 88.3447 10.4714 88.0576 10.2207C87.7751 9.96549 87.39 9.83789 86.9023 9.83789H85.5146ZM92.3779 18V8.27246H98.332V9.83789H94.1963V12.3604H97.7988V13.9258H94.1963V16.4346H98.6807V18H92.3779ZM104.266 18.1846C103.641 18.1846 103.065 18.0775 102.536 17.8633C102.012 17.6445 101.554 17.3301 101.162 16.9199C100.77 16.5052 100.463 15.9743 100.239 15.3271C100.021 14.68 99.9111 13.9508 99.9111 13.1396C99.9111 12.3285 100.021 11.5993 100.239 10.9521C100.458 10.305 100.761 9.77409 101.148 9.35938C101.54 8.94466 101.996 8.63021 102.516 8.41602C103.04 8.19727 103.609 8.08789 104.225 8.08789C104.694 8.08789 105.132 8.15169 105.537 8.2793C105.947 8.40234 106.296 8.57324 106.583 8.79199C106.87 9.01074 107.112 9.25456 107.308 9.52344C107.504 9.79232 107.647 10.0794 107.738 10.3848L106.077 10.8906C105.713 10.0977 105.109 9.70117 104.266 9.70117C103.495 9.70117 102.887 9.98828 102.44 10.5625C101.998 11.1322 101.777 11.9912 101.777 13.1396C101.777 14.2881 102.003 15.1471 102.454 15.7168C102.905 16.2865 103.518 16.5713 104.293 16.5713C105.145 16.5713 105.754 16.1748 106.118 15.3818L107.779 15.8877C107.574 16.5348 107.166 17.0794 106.556 17.5215C105.945 17.9635 105.182 18.1846 104.266 18.1846ZM109.495 18V8.27246H111.313V18H109.495ZM120.316 16.8857C119.587 17.7516 118.596 18.1846 117.343 18.1846C116.09 18.1846 115.096 17.7516 114.362 16.8857C113.633 16.0153 113.269 14.762 113.269 13.126C113.269 11.499 113.633 10.2526 114.362 9.38672C115.096 8.52083 116.09 8.08789 117.343 8.08789C118.596 8.08789 119.587 8.52083 120.316 9.38672C121.05 10.2526 121.417 11.499 121.417 13.126C121.417 14.762 121.05 16.0153 120.316 16.8857ZM117.343 16.5713C118.031 16.5713 118.571 16.2979 118.963 15.751C119.359 15.1995 119.558 14.3245 119.558 13.126C119.558 11.932 119.359 11.0638 118.963 10.5215C118.571 9.97461 118.031 9.70117 117.343 9.70117C115.871 9.70117 115.135 10.8428 115.135 13.126C115.135 15.4229 115.871 16.5713 117.343 16.5713ZM132.437 12.3467V13.9121H129.887V16.667H128.232V13.9121H125.696V12.3467H128.232V9.58496H129.887V12.3467H132.437ZM137.222 18V8.27246H140.571C140.854 8.27246 141.12 8.28841 141.371 8.32031C141.626 8.35221 141.9 8.42057 142.191 8.52539C142.488 8.63021 142.738 8.76921 142.943 8.94238C143.153 9.111 143.326 9.34798 143.463 9.65332C143.604 9.95866 143.675 10.3141 143.675 10.7197C143.675 11.8135 143.194 12.5745 142.232 13.0029V13.0166C142.41 13.0758 142.583 13.1602 142.752 13.2695C142.921 13.3789 143.094 13.5225 143.271 13.7002C143.449 13.8779 143.59 14.1058 143.695 14.3838C143.805 14.6618 143.859 14.9671 143.859 15.2998C143.859 15.7054 143.802 16.0654 143.688 16.3799C143.579 16.6943 143.429 16.9518 143.237 17.1523C143.046 17.3529 142.807 17.5192 142.52 17.6514C142.237 17.779 141.934 17.8701 141.61 17.9248C141.291 17.9749 140.936 18 140.544 18H137.222ZM139.04 12.3193H140.387C140.833 12.3193 141.177 12.2077 141.419 11.9844C141.665 11.7565 141.788 11.4329 141.788 11.0137C141.788 10.2298 141.326 9.83789 140.4 9.83789H139.04V12.3193ZM139.04 16.4346H140.482C141.462 16.4346 141.952 16.0085 141.952 15.1562C141.952 14.737 141.82 14.4202 141.556 14.2061C141.296 13.9919 140.929 13.8848 140.455 13.8848H139.04V16.4346ZM151.16 18L150.559 15.9971H147.154L146.58 18H144.707L147.756 8.27246H150.066L153.122 18H151.16ZM147.619 14.4316H150.094L148.836 10.2002L147.619 14.4316ZM154.065 18V16.4346H154.934C155.763 16.4346 156.371 16.2454 156.759 15.8672C157.151 15.4844 157.347 14.8851 157.347 14.0693V9.83789H154.64V8.27246H159.165V14.0693C159.165 15.4456 158.819 16.446 158.126 17.0703C157.433 17.6901 156.369 18 154.934 18H154.065ZM167.922 16.8857C167.193 17.7516 166.201 18.1846 164.948 18.1846C163.695 18.1846 162.701 17.7516 161.968 16.8857C161.239 16.0153 160.874 14.762 160.874 13.126C160.874 11.499 161.239 10.2526 161.968 9.38672C162.701 8.52083 163.695 8.08789 164.948 8.08789C166.201 8.08789 167.193 8.52083 167.922 9.38672C168.656 10.2526 169.022 11.499 169.022 13.126C169.022 14.762 168.656 16.0153 167.922 16.8857ZM164.948 16.5713C165.636 16.5713 166.176 16.2979 166.568 15.751C166.965 15.1995 167.163 14.3245 167.163 13.126C167.163 11.932 166.965 11.0638 166.568 10.5215C166.176 9.97461 165.636 9.70117 164.948 9.70117C163.476 9.70117 162.74 10.8428 162.74 13.126C162.74 15.4229 163.476 16.5713 164.948 16.5713Z" fill="black"/>
</svg>
