<svg width="80" height="16" viewBox="0 0 80 16" fill="none" xmlns="http://www.w3.org/2000/svg">
<g clip-path="url(#clip0_536_471)">
<path d="M8.80278 1.38892C8.65556 1.08336 8.34444 0.888916 8.00278 0.888916C7.66111 0.888916 7.35278 1.08336 7.20278 1.38892L5.41667 5.06392L1.42778 5.6528C1.09444 5.7028 0.816667 5.93614 0.713889 6.25558C0.611111 6.57503 0.694444 6.9278 0.933333 7.16392L3.82778 10.0278L3.14444 14.075C3.08889 14.4084 3.22778 14.7472 3.50278 14.9445C3.77778 15.1417 4.14167 15.1667 4.44167 15.0084L8.00556 13.1056L11.5694 15.0084C11.8694 15.1667 12.2333 15.1445 12.5083 14.9445C12.7833 14.7445 12.9222 14.4084 12.8667 14.075L12.1806 10.0278L15.075 7.16392C15.3139 6.9278 15.4 6.57503 15.2944 6.25558C15.1889 5.93614 14.9139 5.7028 14.5806 5.6528L10.5889 5.06392L8.80278 1.38892Z" fill="#DA6714"/>
</g>
<g clip-path="url(#clip1_536_471)">
<path d="M24.8028 1.38892C24.6556 1.08336 24.3444 0.888916 24.0028 0.888916C23.6611 0.888916 23.3528 1.08336 23.2028 1.38892L21.4167 5.06392L17.4278 5.6528C17.0944 5.7028 16.8167 5.93614 16.7139 6.25558C16.6111 6.57503 16.6944 6.9278 16.9333 7.16392L19.8278 10.0278L19.1444 14.075C19.0889 14.4084 19.2278 14.7472 19.5028 14.9445C19.7778 15.1417 20.1417 15.1667 20.4417 15.0084L24.0056 13.1056L27.5694 15.0084C27.8694 15.1667 28.2333 15.1445 28.5083 14.9445C28.7833 14.7445 28.9222 14.4084 28.8667 14.075L28.1806 10.0278L31.075 7.16392C31.3139 6.9278 31.4 6.57503 31.2944 6.25558C31.1889 5.93614 30.9139 5.7028 30.5806 5.6528L26.5889 5.06392L24.8028 1.38892Z" fill="#DA6714"/>
</g>
<g clip-path="url(#clip2_536_471)">
<path d="M40.8028 1.38892C40.6556 1.08336 40.3444 0.888916 40.0028 0.888916C39.6611 0.888916 39.3528 1.08336 39.2028 1.38892L37.4167 5.06392L33.4278 5.6528C33.0944 5.7028 32.8167 5.93614 32.7139 6.25558C32.6111 6.57503 32.6944 6.9278 32.9333 7.16392L35.8278 10.0278L35.1444 14.075C35.0889 14.4084 35.2278 14.7472 35.5028 14.9445C35.7778 15.1417 36.1417 15.1667 36.4417 15.0084L40.0056 13.1056L43.5694 15.0084C43.8694 15.1667 44.2333 15.1445 44.5083 14.9445C44.7833 14.7445 44.9222 14.4084 44.8667 14.075L44.1806 10.0278L47.075 7.16392C47.3139 6.9278 47.4 6.57503 47.2944 6.25558C47.1889 5.93614 46.9139 5.7028 46.5806 5.6528L42.5889 5.06392L40.8028 1.38892Z" fill="#DA6714"/>
</g>
<g clip-path="url(#clip3_536_471)">
<path d="M56.8028 1.38892C56.6556 1.08336 56.3444 0.888916 56.0028 0.888916C55.6611 0.888916 55.3528 1.08336 55.2028 1.38892L53.4167 5.06392L49.4278 5.6528C49.0944 5.7028 48.8167 5.93614 48.7139 6.25558C48.6111 6.57503 48.6944 6.9278 48.9333 7.16392L51.8278 10.0278L51.1444 14.075C51.0889 14.4084 51.2278 14.7472 51.5028 14.9445C51.7778 15.1417 52.1417 15.1667 52.4417 15.0084L56.0056 13.1056L59.5694 15.0084C59.8694 15.1667 60.2333 15.1445 60.5083 14.9445C60.7833 14.7445 60.9222 14.4084 60.8667 14.075L60.1806 10.0278L63.075 7.16392C63.3139 6.9278 63.4 6.57503 63.2944 6.25558C63.1889 5.93614 62.9139 5.7028 62.5806 5.6528L58.5889 5.06392L56.8028 1.38892Z" fill="#DA6714"/>
</g>
<g clip-path="url(#clip4_536_471)">
<path d="M72.0028 2.03056L73.6895 5.50104L73.9204 5.97612L74.4429 6.05321L78.2136 6.60949L75.4772 9.31696L75.1078 9.68251L75.1946 10.1949L75.8432 14.0209L72.4765 12.2234L72.0056 11.972L71.5346 12.2234L68.1677 14.021L68.8138 10.1943L68.9003 9.68222L68.5311 9.31696L65.7947 6.60947L69.5627 6.05319L70.0852 5.97606L70.3161 5.50104L72.0028 2.03056Z" fill="white" stroke="#DA6714" stroke-width="2"/>
<mask id="path-6-inside-1_536_471" fill="white">
<path d="M72 11V4L71.5 4.5L67.5 7.5L69.5 12.5L72 11Z"/>
</mask>
<path d="M72 4H77V-8.07107L68.4645 0.464466L72 4ZM72 11L74.5725 15.2875L77 13.831V11H72ZM69.5 12.5L64.8576 14.357L67.0381 19.8081L72.0725 16.7875L69.5 12.5ZM67.5 7.5L64.5 3.5L61.4345 5.79913L62.8576 9.35695L67.5 7.5ZM71.5 4.5L74.5 8.5L74.7843 8.2868L75.0355 8.03553L71.5 4.5ZM67 4V11H77V4H67ZM69.4275 6.71254L66.9275 8.21254L72.0725 16.7875L74.5725 15.2875L69.4275 6.71254ZM74.1424 10.643L72.1424 5.64305L62.8576 9.35695L64.8576 14.357L74.1424 10.643ZM70.5 11.5L74.5 8.5L68.5 0.5L64.5 3.5L70.5 11.5ZM75.0355 8.03553L75.5355 7.53553L68.4645 0.464466L67.9645 0.964466L75.0355 8.03553Z" fill="#DA6714" mask="url(#path-6-inside-1_536_471)"/>
</g>
<defs>
<clipPath id="clip0_536_471">
<rect width="16" height="16" fill="white"/>
</clipPath>
<clipPath id="clip1_536_471">
<rect width="16" height="16" fill="white" transform="translate(16)"/>
</clipPath>
<clipPath id="clip2_536_471">
<rect width="16" height="16" fill="white" transform="translate(32)"/>
</clipPath>
<clipPath id="clip3_536_471">
<rect width="16" height="16" fill="white" transform="translate(48)"/>
</clipPath>
<clipPath id="clip4_536_471">
<rect width="16" height="16" fill="white" transform="translate(64)"/>
</clipPath>
</defs>
</svg>
