<svg width="32" height="32" viewBox="0 0 32 32" fill="none" xmlns="http://www.w3.org/2000/svg">
<g clip-path="url(#clip0_553_460)">
<mask id="mask0_553_460" style="mask-type:luminance" maskUnits="userSpaceOnUse" x="0" y="0" width="32" height="32">
<path d="M32 32V0H0V32H32Z" fill="white"/>
</mask>
<g mask="url(#mask0_553_460)">
<path d="M23 28V11C23 10.7348 23.1054 10.4804 23.2929 10.2929C23.4804 10.1054 23.7348 10 24 10C24.2652 10 24.5196 10.1054 24.7071 10.2929C24.8946 10.4804 25 10.7348 25 11V28C25 28.2652 24.8946 28.5196 24.7071 28.7071C24.5196 28.8946 24.2652 29 24 29C23.7348 29 23.4804 28.8946 23.2929 28.7071C23.1054 28.5196 23 28.2652 23 28Z" fill="#666666"/>
<path d="M23 7V4C23 3.73478 23.1054 3.48043 23.2929 3.29289C23.4804 3.10536 23.7348 3 24 3C24.2652 3 24.5196 3.10536 24.7071 3.29289C24.8946 3.48043 25 3.73478 25 4V7C25 7.26522 24.8946 7.51957 24.7071 7.70711C24.5196 7.89464 24.2652 8 24 8C23.7348 8 23.4804 7.89464 23.2929 7.70711C23.1054 7.51957 23 7.26522 23 7Z" fill="#666666"/>
<path d="M15 21V4C15 3.73478 15.1054 3.48043 15.2929 3.29289C15.4804 3.10536 15.7348 3 16 3C16.2652 3 16.5196 3.10536 16.7071 3.29289C16.8946 3.48043 17 3.73478 17 4V21C17 21.2652 16.8946 21.5196 16.7071 21.7071C16.5196 21.8946 16.2652 22 16 22C15.7348 22 15.4804 21.8946 15.2929 21.7071C15.1054 21.5196 15 21.2652 15 21Z" fill="#666666"/>
<path d="M7 11V4C7 3.73478 7.10536 3.48043 7.29289 3.29289C7.48043 3.10536 7.73478 3 8 3C8.26522 3 8.51957 3.10536 8.70711 3.29289C8.89464 3.48043 9 3.73478 9 4V11C9 11.2652 8.89464 11.5196 8.70711 11.7071C8.51957 11.8946 8.26522 12 8 12C7.73478 12 7.48043 11.8946 7.29289 11.7071C7.10536 11.5196 7 11.2652 7 11Z" fill="#666666"/>
<path d="M21 9C21 8.40666 21.1759 7.82664 21.5056 7.33329C21.8352 6.83994 22.3038 6.45543 22.8519 6.22836C23.4001 6.0013 24.0033 5.94189 24.5853 6.05765C25.1672 6.1734 25.7018 6.45912 26.1213 6.87868C26.5409 7.29824 26.8266 7.83279 26.9424 8.41473C27.0581 8.99667 26.9987 9.59987 26.7716 10.1481C26.5446 10.6962 26.1601 11.1648 25.6667 11.4944C25.1734 11.8241 24.5933 12 24 12C23.2043 12 22.4413 11.6839 21.8787 11.1213C21.3161 10.5587 21 9.79565 21 9Z" fill="#666666"/>
<path d="M13 23C13 22.4067 13.1759 21.8266 13.5056 21.3333C13.8352 20.8399 14.3038 20.4554 14.8519 20.2284C15.4001 20.0013 16.0033 19.9419 16.5853 20.0576C17.1672 20.1734 17.7018 20.4591 18.1213 20.8787C18.5409 21.2982 18.8266 21.8328 18.9424 22.4147C19.0581 22.9967 18.9987 23.5999 18.7716 24.1481C18.5446 24.6962 18.1601 25.1648 17.6667 25.4944C17.1734 25.8241 16.5933 26 16 26C15.2043 26 14.4413 25.6839 13.8787 25.1213C13.3161 24.5587 13 23.7957 13 23Z" fill="#666666"/>
<path d="M5 13C5 12.4067 5.17594 11.8266 5.50559 11.3333C5.83523 10.8399 6.30377 10.4554 6.85195 10.2284C7.40013 10.0013 8.00333 9.9419 8.58527 10.0576C9.16721 10.1734 9.70176 10.4591 10.1213 10.8787C10.5409 11.2982 10.8266 11.8328 10.9424 12.4147C11.0581 12.9967 10.9987 13.5999 10.7716 14.1481C10.5446 14.6962 10.1601 15.1648 9.66671 15.4944C9.17336 15.8241 8.59334 16 8 16C7.20435 16 6.44129 15.6839 5.87868 15.1213C5.31607 14.5587 5 13.7957 5 13Z" fill="#666666"/>
<path d="M15 28V25C15 24.7348 15.1054 24.4804 15.2929 24.2929C15.4804 24.1054 15.7348 24 16 24C16.2652 24 16.5196 24.1054 16.7071 24.2929C16.8946 24.4804 17 24.7348 17 25V28C17 28.2652 16.8946 28.5196 16.7071 28.7071C16.5196 28.8946 16.2652 29 16 29C15.7348 29 15.4804 28.8946 15.2929 28.7071C15.1054 28.5196 15 28.2652 15 28Z" fill="#666666"/>
<path d="M7 28V15C7 14.7348 7.10536 14.4804 7.29289 14.2929C7.48043 14.1054 7.73478 14 8 14C8.26522 14 8.51957 14.1054 8.70711 14.2929C8.89464 14.4804 9 14.7348 9 15V28C9 28.2652 8.89464 28.5196 8.70711 28.7071C8.51957 28.8946 8.26522 29 8 29C7.73478 29 7.48043 28.8946 7.29289 28.7071C7.10536 28.5196 7 28.2652 7 28Z" fill="#666666"/>
</g>
</g>
<defs>
<clipPath id="clip0_553_460">
<rect width="32" height="32" fill="white"/>
</clipPath>
</defs>
</svg>
