<svg width="270" height="120" viewBox="0 0 270 120" fill="none" xmlns="http://www.w3.org/2000/svg">
<rect width="270" height="120" fill="#DA2433"/>
<path d="M39.1992 52.1429V24.3499H48.8281C50.3125 24.3499 51.6732 24.5126 52.9102 24.8382C54.1602 25.1507 55.3125 25.665 56.3672 26.3811C57.4219 27.0843 58.3138 27.9697 59.043 29.0374C59.7852 30.1051 60.3581 31.4202 60.7617 32.9827C61.1784 34.5322 61.3867 36.277 61.3867 38.2171C61.3867 40.1572 61.1784 41.902 60.7617 43.4514C60.3581 45.0009 59.7852 46.316 59.043 47.3968C58.3138 48.4645 57.4219 49.3629 56.3672 50.0921C55.3255 50.8082 54.1732 51.3291 52.9102 51.6546C51.6602 51.9801 50.2995 52.1429 48.8281 52.1429H39.1992ZM45.3906 46.8304H48.2031C48.9714 46.8304 49.6745 46.7587 50.3125 46.6155C50.9505 46.4593 51.569 46.1858 52.168 45.7952C52.7799 45.4046 53.2943 44.8968 53.7109 44.2718C54.1276 43.6337 54.4596 42.8069 54.707 41.7913C54.9544 40.7626 55.0781 39.5712 55.0781 38.2171C55.0781 36.8629 54.9544 35.678 54.707 34.6624C54.4596 33.6337 54.1276 32.8069 53.7109 32.1819C53.3073 31.5569 52.7995 31.0556 52.1875 30.678C51.5755 30.2874 50.9505 30.0205 50.3125 29.8772C49.6875 29.734 48.9844 29.6624 48.2031 29.6624H45.3906V46.8304ZM68.6719 28.2952C67.7474 28.2952 66.9466 28.0022 66.2695 27.4163C65.5924 26.8173 65.2539 25.9905 65.2539 24.9358C65.2539 23.8551 65.5859 23.0218 66.25 22.4358C66.9271 21.8369 67.7344 21.5374 68.6719 21.5374C69.6354 21.5374 70.4492 21.8369 71.1133 22.4358C71.7773 23.0218 72.1094 23.8551 72.1094 24.9358C72.1094 26.0035 71.7773 26.8304 71.1133 27.4163C70.4492 28.0022 69.6354 28.2952 68.6719 28.2952ZM65.6641 52.1429V30.6585H71.7383V52.1429H65.6641ZM84.2383 52.6702C82.9883 52.6702 81.8294 52.527 80.7617 52.2405C79.694 51.9541 78.7956 51.5699 78.0664 51.0882C77.3503 50.6064 76.7578 50.1181 76.2891 49.6233C75.8203 49.1155 75.4557 48.5947 75.1953 48.0608L79.0039 44.8968C79.5638 45.691 80.2604 46.3616 81.0938 46.9085C81.9401 47.4423 82.8971 47.7093 83.9648 47.7093C84.668 47.7093 85.2539 47.5595 85.7227 47.26C86.2044 46.9475 86.4453 46.5374 86.4453 46.0296C86.4453 45.652 86.2435 45.3134 85.8398 45.0139C85.4492 44.7145 84.9414 44.4541 84.3164 44.2327C83.6914 43.9983 82.9948 43.7639 82.2266 43.5296C81.4714 43.2952 80.7096 43.0087 79.9414 42.6702C79.1732 42.3186 78.4766 41.9215 77.8516 41.4788C77.2266 41.0231 76.7122 40.4306 76.3086 39.7014C75.918 38.9593 75.7227 38.1194 75.7227 37.1819C75.7227 35.0986 76.4844 33.4059 78.0078 32.1038C79.5443 30.8017 81.5299 30.1507 83.9648 30.1507C85.1497 30.1507 86.2565 30.2874 87.2852 30.5608C88.3268 30.8343 89.1992 31.1923 89.9023 31.635C90.6055 32.0777 91.1914 32.54 91.6602 33.0218C92.1289 33.4905 92.4935 33.9723 92.7539 34.4671L88.9258 37.6702C88.418 36.9541 87.7344 36.3486 86.875 35.8538C86.0286 35.359 85.1237 35.1116 84.1602 35.1116C83.4831 35.1116 82.9362 35.2548 82.5195 35.5413C82.1159 35.8147 81.9141 36.1858 81.9141 36.6546C81.9141 37.0452 82.1094 37.3902 82.5 37.6897C82.9036 37.9892 83.418 38.2496 84.043 38.471C84.668 38.6923 85.3581 38.9202 86.1133 39.1546C86.8815 39.3889 87.6497 39.6819 88.418 40.0335C89.1862 40.372 89.8828 40.7757 90.5078 41.2444C91.1328 41.7001 91.6406 42.3121 92.0312 43.0804C92.4349 43.8486 92.6367 44.721 92.6367 45.6975C92.6367 47.859 91.8359 49.5647 90.2344 50.8147C88.6328 52.0517 86.6341 52.6702 84.2383 52.6702ZM98.0078 52.1429V36.0686H94.8047V30.6585H98.0078V29.3499C98.0078 28.0738 98.2031 26.941 98.5938 25.9514C98.9844 24.9488 99.5247 24.1416 100.215 23.5296C100.905 22.9176 101.693 22.4554 102.578 22.1429C103.477 21.8173 104.447 21.6546 105.488 21.6546C106.374 21.6546 107.285 21.7392 108.223 21.9085C109.173 22.0777 109.941 22.2861 110.527 22.5335L109.805 27.6311C108.659 27.1754 107.578 26.9475 106.562 26.9475C105.82 26.9475 105.221 27.1429 104.766 27.5335C104.31 27.9241 104.082 28.5556 104.082 29.428V30.6585H108.848V36.0686H104.082V52.1429H98.0078ZM112.07 52.1429V30.6585H118.145V33.0218C118.678 32.1103 119.408 31.4137 120.332 30.9319C121.257 30.4371 122.279 30.1897 123.398 30.1897C125.13 30.1897 126.569 30.6129 127.715 31.4593L125.391 37.0257C124.505 36.3095 123.503 35.9514 122.383 35.9514C121.224 35.9514 120.228 36.4137 119.395 37.3382C118.561 38.2626 118.145 39.4671 118.145 40.9514V52.1429H112.07ZM137.227 52.6702C135.156 52.6702 133.411 51.9801 131.992 50.5999C130.573 49.2067 129.863 47.4163 129.863 45.2288V30.6585H135.898V44.096C135.898 45.0986 136.185 45.8863 136.758 46.4593C137.331 47.0192 138.047 47.2991 138.906 47.2991C139.831 47.2991 140.638 46.9606 141.328 46.2835C142.031 45.5934 142.383 44.6689 142.383 43.51V30.6585H148.418V45.3069C148.418 47.7548 148.698 50.0335 149.258 52.1429H143.301C143.079 51.5179 142.936 50.8408 142.871 50.1116C142.311 50.8668 141.504 51.4853 140.449 51.9671C139.408 52.4358 138.333 52.6702 137.227 52.6702ZM162.793 52.6702C160.579 52.6702 158.802 52.0712 157.461 50.8733C156.133 49.6754 155.469 47.9241 155.469 45.6194V36.0686H151.758V30.6585H155.469V24.9749L161.504 23.9007V30.6585H166.992V36.0686H161.504V44.3889C161.504 45.9905 162.292 46.7913 163.867 46.7913C164.596 46.7913 165.573 46.5634 166.797 46.1077L167.188 51.8694C165.729 52.4033 164.264 52.6702 162.793 52.6702ZM176.367 52.6702C174.557 52.6702 173.04 52.0908 171.816 50.9319C170.592 49.7731 169.98 48.191 169.98 46.1858C169.98 44.0504 170.788 42.3837 172.402 41.1858C174.03 39.9879 176.152 39.3889 178.77 39.3889H181.934V38.2171C181.934 37.3577 181.686 36.6806 181.191 36.1858C180.697 35.678 180.052 35.4241 179.258 35.4241C178.594 35.4241 178.014 35.6194 177.52 36.01C177.025 36.4007 176.66 36.9085 176.426 37.5335L170.781 36.0686C170.938 35.6129 171.146 35.1442 171.406 34.6624C171.68 34.1676 172.057 33.6468 172.539 33.0999C173.034 32.54 173.581 32.0517 174.18 31.635C174.779 31.2054 175.514 30.8538 176.387 30.5804C177.272 30.2939 178.216 30.1507 179.219 30.1507C181.888 30.1507 184.036 30.8603 185.664 32.2796C187.292 33.6988 188.105 35.7041 188.105 38.2952V45.2288C188.105 48.2887 188.424 50.5934 189.062 52.1429H182.617C182.292 51.4527 182.116 50.7171 182.09 49.9358C181.595 50.7561 180.84 51.4202 179.824 51.928C178.822 52.4228 177.669 52.6702 176.367 52.6702ZM178.574 47.5921C179.447 47.5921 180.221 47.3186 180.898 46.7718C181.589 46.2249 181.934 45.5478 181.934 44.7405V43.4319H179.062C178.099 43.4319 177.376 43.6272 176.895 44.0179C176.413 44.3955 176.172 44.9293 176.172 45.6194C176.172 46.2054 176.4 46.6806 176.855 47.0452C177.324 47.4098 177.897 47.5921 178.574 47.5921ZM219.883 40.2679V43.51H206.25C206.732 46.1923 208.105 47.5335 210.371 47.5335C211.335 47.5335 212.155 47.2861 212.832 46.7913C213.522 46.2965 214.023 45.6259 214.336 44.7796L219.805 45.9124C219.336 47.7223 218.184 49.3043 216.348 50.6585C214.512 51.9996 212.507 52.6702 210.332 52.6702C207.129 52.6702 204.577 51.6546 202.676 49.6233C200.788 47.5791 199.844 44.8056 199.844 41.303C199.844 37.9697 200.781 35.2809 202.656 33.2366C204.544 31.1793 206.999 30.1507 210.02 30.1507C211.582 30.1507 212.995 30.4371 214.258 31.01C215.534 31.5699 216.576 32.3251 217.383 33.2757C218.19 34.2132 218.809 35.2874 219.238 36.4983C219.668 37.6962 219.883 38.9527 219.883 40.2679ZM206.289 38.7054H213.535C213.522 37.6767 213.171 36.8694 212.48 36.2835C211.803 35.6845 210.951 35.385 209.922 35.385C208.008 35.385 206.797 36.4918 206.289 38.7054ZM232.637 52.5335C229.772 52.5335 227.526 51.8304 225.898 50.4241C224.284 49.0179 223.477 47.0582 223.477 44.5452V22.1429H229.551V43.471C229.551 44.6298 229.85 45.5348 230.449 46.1858C231.048 46.8238 231.882 47.1429 232.949 47.1429L232.637 52.5335ZM33.2227 102.67C31.7643 102.67 30.5469 102.377 29.5703 101.791C28.5938 101.192 27.9427 100.457 27.6172 99.5843C27.5911 100.548 27.4414 101.401 27.168 102.143H21.2109C21.4323 101.244 21.6146 100.131 21.7578 98.803C21.901 97.4619 21.9727 96.3746 21.9727 95.5413V72.1429H28.0469V82.3382C28.4766 81.7652 29.1406 81.2574 30.0391 80.8147C30.9505 80.372 32.0117 80.1507 33.2227 80.1507C34.3685 80.1507 35.4362 80.3916 36.4258 80.8733C37.4284 81.3421 38.3073 82.0257 39.0625 82.9241C39.8177 83.8225 40.4102 84.9749 40.8398 86.3811C41.2826 87.7744 41.5039 89.3369 41.5039 91.0686C41.5039 94.6494 40.7682 97.4814 39.2969 99.5647C37.8385 101.635 35.8138 102.67 33.2227 102.67ZM31.6602 97.3772C34.082 97.3772 35.293 95.3916 35.293 91.4202C35.293 87.4228 34.082 85.4241 31.6602 85.4241C29.2513 85.4241 28.0469 87.4228 28.0469 91.4202C28.0469 95.3916 29.2513 97.3772 31.6602 97.3772ZM51.7773 102.67C49.707 102.67 47.9622 101.98 46.543 100.6C45.1237 99.2067 44.4141 97.4163 44.4141 95.2288V80.6585H50.4492V94.096C50.4492 95.0986 50.7357 95.8863 51.3086 96.4593C51.8815 97.0192 52.5977 97.2991 53.457 97.2991C54.3815 97.2991 55.1888 96.9606 55.8789 96.2835C56.582 95.5934 56.9336 94.6689 56.9336 93.51V80.6585H62.9688V95.3069C62.9688 97.7548 63.2487 100.033 63.8086 102.143H57.8516C57.6302 101.518 57.487 100.841 57.4219 100.112C56.862 100.867 56.0547 101.485 55 101.967C53.9583 102.436 52.8841 102.67 51.7773 102.67ZM86.8555 90.2679V93.51H73.2227C73.7044 96.1923 75.0781 97.5335 77.3438 97.5335C78.3073 97.5335 79.1276 97.2861 79.8047 96.7913C80.4948 96.2965 80.9961 95.6259 81.3086 94.7796L86.7773 95.9124C86.3086 97.7223 85.1562 99.3043 83.3203 100.658C81.4844 102 79.4792 102.67 77.3047 102.67C74.1016 102.67 71.5495 101.655 69.6484 99.6233C67.7604 97.5791 66.8164 94.8056 66.8164 91.303C66.8164 87.9697 67.7539 85.2809 69.6289 83.2366C71.5169 81.1793 73.9714 80.1507 76.9922 80.1507C78.5547 80.1507 79.9674 80.4371 81.2305 81.01C82.5065 81.5699 83.5482 82.3251 84.3555 83.2757C85.1628 84.2132 85.7812 85.2874 86.2109 86.4983C86.6406 87.6962 86.8555 88.9527 86.8555 90.2679ZM73.2617 88.7054H80.5078C80.4948 87.6767 80.1432 86.8694 79.4531 86.2835C78.776 85.6845 77.9232 85.385 76.8945 85.385C74.9805 85.385 73.7695 86.4918 73.2617 88.7054ZM90.5664 102.143V80.6585H96.4844V82.7093C97.1094 81.941 97.9036 81.3225 98.8672 80.8538C99.8438 80.385 100.905 80.1507 102.051 80.1507C104.303 80.1507 106.146 80.8798 107.578 82.3382C109.01 83.7965 109.727 85.7301 109.727 88.1389V102.143H103.652V89.5843C103.652 88.4775 103.32 87.5986 102.656 86.9475C101.992 86.2835 101.159 85.9514 100.156 85.9514C99.1667 85.9514 98.3333 86.29 97.6562 86.9671C96.9792 87.6442 96.6406 88.5556 96.6406 89.7014V102.143H90.5664ZM131.641 102.67C129.427 102.67 127.65 102.071 126.309 100.873C124.98 99.6754 124.316 97.9241 124.316 95.6194V86.0686H120.605V80.6585H124.316V74.9749L130.352 73.9007V80.6585H135.84V86.0686H130.352V94.3889C130.352 95.9905 131.139 96.7913 132.715 96.7913C133.444 96.7913 134.421 96.5634 135.645 96.1077L136.035 101.869C134.577 102.403 133.112 102.67 131.641 102.67ZM142.832 78.2952C141.908 78.2952 141.107 78.0022 140.43 77.4163C139.753 76.8173 139.414 75.9905 139.414 74.9358C139.414 73.8551 139.746 73.0218 140.41 72.4358C141.087 71.8369 141.895 71.5374 142.832 71.5374C143.796 71.5374 144.609 71.8369 145.273 72.4358C145.938 73.0218 146.27 73.8551 146.27 74.9358C146.27 76.0035 145.938 76.8304 145.273 77.4163C144.609 78.0022 143.796 78.2952 142.832 78.2952ZM139.824 102.143V80.6585H145.898V102.143H139.824ZM169.512 90.2679V93.51H155.879C156.361 96.1923 157.734 97.5335 160 97.5335C160.964 97.5335 161.784 97.2861 162.461 96.7913C163.151 96.2965 163.652 95.6259 163.965 94.7796L169.434 95.9124C168.965 97.7223 167.812 99.3043 165.977 100.658C164.141 102 162.135 102.67 159.961 102.67C156.758 102.67 154.206 101.655 152.305 99.6233C150.417 97.5791 149.473 94.8056 149.473 91.303C149.473 87.9697 150.41 85.2809 152.285 83.2366C154.173 81.1793 156.628 80.1507 159.648 80.1507C161.211 80.1507 162.624 80.4371 163.887 81.01C165.163 81.5699 166.204 82.3251 167.012 83.2757C167.819 84.2132 168.438 85.2874 168.867 86.4983C169.297 87.6962 169.512 88.9527 169.512 90.2679ZM155.918 88.7054H163.164C163.151 87.6767 162.799 86.8694 162.109 86.2835C161.432 85.6845 160.579 85.385 159.551 85.385C157.637 85.385 156.426 86.4918 155.918 88.7054ZM173.223 102.143V80.6585H179.141V82.7093C179.714 81.9541 180.495 81.3421 181.484 80.8733C182.487 80.3916 183.548 80.1507 184.668 80.1507C185.788 80.1507 186.784 80.3785 187.656 80.8343C188.542 81.29 189.212 81.9801 189.668 82.9046C190.358 82.0452 191.224 81.3746 192.266 80.8929C193.32 80.3981 194.453 80.1507 195.664 80.1507C196.68 80.1507 197.643 80.3199 198.555 80.6585C199.466 80.984 200.286 81.4658 201.016 82.1038C201.758 82.7418 202.344 83.5882 202.773 84.6429C203.203 85.6975 203.418 86.8889 203.418 88.2171V102.143H197.383V89.5843C197.383 88.3994 197.103 87.5009 196.543 86.8889C195.996 86.2639 195.286 85.9514 194.414 85.9514C193.516 85.9514 192.78 86.2705 192.207 86.9085C191.634 87.5465 191.348 88.4775 191.348 89.7014V102.143H185.293V89.5843C185.293 88.3994 185.02 87.5009 184.473 86.8889C183.926 86.2639 183.216 85.9514 182.344 85.9514C181.458 85.9514 180.729 86.2705 180.156 86.9085C179.583 87.5465 179.297 88.4775 179.297 89.7014V102.143H173.223ZM208.105 109.936V80.6585H214.18V83.0218C214.557 82.2405 215.208 81.5699 216.133 81.01C217.07 80.4371 218.158 80.1507 219.395 80.1507C220.527 80.1507 221.582 80.385 222.559 80.8538C223.535 81.3225 224.401 82.0126 225.156 82.9241C225.924 83.8225 226.523 85.0009 226.953 86.4593C227.396 87.9176 227.617 89.5712 227.617 91.4202C227.617 93.2692 227.396 94.9228 226.953 96.3811C226.523 97.8395 225.924 99.0244 225.156 99.9358C224.401 100.834 223.535 101.518 222.559 101.987C221.582 102.442 220.527 102.67 219.395 102.67C218.301 102.67 217.298 102.449 216.387 102.006C215.475 101.563 214.74 101.01 214.18 100.346V109.936H208.105ZM217.793 97.3772C220.215 97.3772 221.426 95.3916 221.426 91.4202C221.426 87.4228 220.215 85.4241 217.793 85.4241C215.384 85.4241 214.18 87.4228 214.18 91.4202C214.18 95.3916 215.384 97.3772 217.793 97.3772ZM246.836 99.7991C245.052 101.713 242.676 102.67 239.707 102.67C236.738 102.67 234.355 101.713 232.559 99.7991C230.762 97.872 229.863 95.0791 229.863 91.4202C229.863 87.7483 230.755 84.9554 232.539 83.0413C234.336 81.1142 236.725 80.1507 239.707 80.1507C242.676 80.1507 245.052 81.1077 246.836 83.0218C248.62 84.9358 249.512 87.7353 249.512 91.4202C249.512 95.0791 248.62 97.872 246.836 99.7991ZM239.707 97.3772C242.103 97.3772 243.301 95.3916 243.301 91.4202C243.301 87.4228 242.103 85.4241 239.707 85.4241C237.285 85.4241 236.074 87.4228 236.074 91.4202C236.074 95.3916 237.285 97.3772 239.707 97.3772Z" fill="white"/>
</svg>
